<?xml version="1.0" standalone="no"?>
<!DOCTYPE svg PUBLIC "-//W3C//DTD SVG 20010904//EN"
 "http://www.w3.org/TR/2001/REC-SVG-20010904/DTD/svg10.dtd">
<svg version="1.0" xmlns="http://www.w3.org/2000/svg"
 width="1500.000000pt" height="1500.000000pt" viewBox="0 0 1500.000000 1500.000000"
 preserveAspectRatio="xMidYMid meet">

<g transform="translate(0.000000,1500.000000) scale(0.100000,-0.100000)"
fill="#000000" stroke="none">
<path d="M7145 10489 c-382 -68 -1403 -239 -1435 -240 -25 0 -25 0 5 -14 17
-8 91 -39 165 -71 74 -31 163 -69 197 -85 345 -158 591 -216 866 -206 146 5
148 6 181 35 48 42 98 56 191 57 93 0 148 -15 190 -51 17 -14 25 -23 19 -20
-15 7 -54 -22 -54 -40 0 -21 -68 -83 -99 -90 -14 -3 -44 -11 -66 -17 -22 -6
-44 -9 -50 -7 -5 1 -30 5 -54 7 -42 4 -44 4 -30 -13 10 -13 4 -11 -20 6 -19
13 -41 36 -49 51 l-16 27 -205 5 c-157 4 -228 10 -301 26 -122 27 -381 115
-535 181 -229 98 -433 170 -530 185 -23 3 -61 2 -85 -4 -41 -9 -777 -133
-1165 -196 -175 -29 -264 -58 -377 -125 -106 -63 -163 -123 -183 -192 -19 -66
-35 -199 -23 -192 4 3 8 24 8 48 0 23 2 45 5 48 6 5 1412 -345 1420 -354 2 -2
-7 -51 -20 -109 -124 -548 -154 -997 -84 -1226 24 -78 55 -109 152 -153 42
-19 76 -37 76 -40 1 -3 -106 -39 -237 -80 -130 -41 -255 -82 -277 -91 l-40
-18 33 0 c47 -1 574 -87 1322 -215 856 -146 1230 -206 1292 -206 34 0 116 18
227 50 95 28 183 50 195 50 12 0 26 4 32 10 13 13 114 24 114 13 0 -5 -17 -14
-37 -20 -21 -5 -99 -29 -173 -51 -381 -114 -360 -103 -381 -212 -7 -36 -14
-67 -14 -70 -16 -63 -15 -83 3 -145 l21 -67 -57 7 c-31 4 -88 13 -127 21 -38
8 -281 51 -540 94 -258 44 -614 105 -790 135 -176 31 -466 80 -645 110 -179
30 -383 67 -453 81 -90 19 -131 24 -139 16 -18 -18 1 -63 42 -105 22 -21 33
-36 25 -33 -8 3 -15 1 -15 -4 0 -6 7 -10 16 -10 9 0 14 -6 11 -13 -2 -6 3 -19
11 -27 14 -13 15 -12 9 2 -4 12 -2 15 9 11 7 -3 14 -14 14 -24 0 -22 35 -27
43 -6 3 7 6 5 6 -6 1 -11 12 -20 31 -23 17 -4 30 -13 30 -20 0 -36 73 -56 475
-134 174 -34 709 -142 1135 -230 162 -34 419 -86 570 -115 305 -60 409 -81
490 -101 115 -28 329 -63 420 -69 93 -7 98 -6 210 33 63 22 123 39 133 39 21
0 24 -47 3 -47 -22 0 -144 -60 -213 -105 -50 -32 -68 -51 -90 -95 -26 -51 -28
-64 -28 -170 0 -96 4 -130 28 -210 35 -119 47 -150 59 -150 5 0 7 4 4 8 -2 4
4 8 15 8 20 0 20 0 0 -16 -18 -13 -18 -17 -6 -34 22 -30 63 -17 312 99 125 59
242 112 258 120 17 7 59 27 95 43 134 62 212 93 218 88 3 -3 0 -6 -6 -6 -6 0
-9 -6 -6 -13 3 -9 -102 -67 -339 -185 -189 -95 -347 -172 -351 -172 -5 0 -28
-13 -53 -30 -24 -16 -50 -30 -57 -30 -7 0 -24 -14 -37 -31 -28 -37 -55 -52
-73 -42 -8 4 -38 37 -67 73 -29 36 -56 64 -61 63 -4 -2 -8 3 -8 11 0 8 -5 18
-12 22 -7 4 -8 3 -4 -4 4 -7 3 -12 -3 -12 -5 0 -13 5 -16 10 -4 6 -10 8 -15 5
-4 -2 -33 4 -64 15 -39 13 -56 15 -56 7 0 -8 -3 -7 -9 2 -5 8 -18 12 -29 8
-12 -2 -23 0 -24 5 -2 6 -27 10 -56 10 -28 0 -50 4 -47 8 3 5 -14 6 -37 3 -33
-5 -40 -3 -33 8 7 12 6 12 -7 1 -11 -9 -18 -10 -23 -2 -3 5 -16 10 -29 10 -12
0 -28 6 -34 12 -10 10 -15 10 -21 -1 -7 -11 -10 -11 -15 0 -5 11 -7 11 -12 2
-4 -9 -11 -10 -23 -3 -10 5 -21 7 -24 3 -4 -3 -13 -1 -21 6 -7 6 -35 12 -60
13 -25 0 -46 3 -46 7 0 3 -20 7 -44 7 -24 1 -54 9 -67 17 -17 12 -26 14 -36 6
-8 -7 -24 -8 -40 -4 -16 5 -32 9 -38 10 -5 0 -17 4 -25 8 -8 3 -28 8 -45 11
-16 2 -31 5 -32 6 -2 1 -20 2 -40 2 -21 0 -42 3 -48 6 -5 4 -30 5 -55 5 -32
-2 -41 1 -30 7 11 7 6 10 -20 10 -63 -1 -109 6 -124 19 -12 10 -15 9 -19 -6
-4 -16 -5 -16 -6 2 -1 15 -3 17 -10 6 -6 -9 -14 -10 -27 -3 -11 5 -32 12 -49
13 -16 2 -36 10 -43 17 -7 6 -19 12 -25 12 -7 0 -6 -4 3 -10 13 -8 12 -10 -2
-10 -10 0 -18 4 -18 9 0 5 -14 7 -31 4 -21 -3 -29 -1 -24 6 4 7 -2 10 -17 7
-13 -2 -29 1 -36 7 -10 8 -16 7 -21 -2 -6 -10 -10 -9 -14 3 -5 11 -13 14 -29
8 -34 -11 -64 -8 -82 7 -9 7 -25 11 -36 8 -12 -3 -24 1 -30 11 -5 10 -10 12
-10 6 0 -17 -30 -12 -30 5 0 13 -2 13 -9 2 -6 -9 -10 -10 -16 -2 -5 9 -10 9
-21 0 -8 -7 -14 -7 -14 -1 0 5 -18 8 -40 7 -27 -2 -40 1 -40 10 0 7 -10 13
-22 14 -87 2 -117 5 -113 11 2 4 -7 5 -20 2 -16 -3 -25 0 -25 8 0 7 -6 10 -14
7 -7 -3 -19 0 -26 6 -10 9 -11 9 -5 -3 8 -13 7 -13 -8 -1 -13 10 -17 10 -17 1
0 -10 -3 -10 -14 0 -8 6 -23 11 -33 10 -40 -5 -72 1 -85 13 -8 9 -21 11 -33 7
-11 -4 -27 -4 -36 1 -9 4 -47 11 -85 14 -38 4 -71 11 -72 16 -3 6 -9 5 -17 -1
-9 -8 -15 -8 -20 0 -3 5 -17 7 -31 4 -16 -4 -24 -2 -24 6 0 10 -3 10 -14 1
-10 -8 -16 -9 -21 -1 -3 6 -11 8 -16 5 -5 -4 -9 -1 -9 6 0 10 -3 10 -12 1 -15
-15 -31 -16 -22 0 5 8 -3 10 -27 6 -19 -3 -43 -2 -54 2 -11 4 -29 3 -40 -3
-18 -9 -19 -9 -6 6 15 19 1 23 -17 5 -16 -16 -16 4 1 22 6 8 3 7 -9 -3 -21
-17 -60 -24 -50 -9 7 11 -31 8 -41 -3 -5 -4 -2 -5 6 0 9 5 12 4 7 -3 -7 -12
-37 -5 -47 11 -3 4 -14 1 -23 -8 -20 -21 -17 -25 26 -35 l33 -8 -40 -1 c-27
-1 -44 -7 -52 -19 -10 -17 -8 -18 14 -14 17 3 29 -2 38 -15 15 -21 96 -53 180
-71 181 -40 391 -90 515 -124 80 -21 179 -48 220 -60 41 -11 105 -26 142 -33
37 -8 118 -28 180 -44 62 -17 181 -48 263 -69 83 -21 148 -41 145 -44 -3 -2 3
-13 13 -22 10 -10 17 -20 15 -21 -2 -1 -52 1 -113 5 -60 3 -222 8 -359 9 -137
1 -252 3 -255 5 -3 2 -154 6 -336 10 -354 7 -554 13 -704 22 l-94 6 6 -51 c3
-29 3 -50 -1 -47 -5 3 -14 1 -22 -5 -13 -7 -13 -9 0 -10 31 -4 35 -5 56 -16
26 -15 184 -30 379 -38 83 -3 195 -10 250 -16 55 -5 237 -21 405 -34 168 -14
406 -34 530 -45 124 -11 367 -31 540 -45 173 -14 347 -30 385 -36 39 -5 131
-16 205 -24 74 -8 196 -21 270 -30 74 -9 200 -22 280 -30 80 -8 269 -29 420
-46 375 -42 456 -46 516 -26 l49 17 -26 -23 c-37 -32 -69 -117 -82 -218 -14
-113 -4 -164 67 -341 42 -102 58 -133 73 -133 10 -1 24 -4 31 -9 17 -10 52 2
52 19 0 16 74 58 84 48 3 -4 6 -1 6 5 0 10 32 26 55 27 6 1 20 7 33 13 12 7
27 10 32 7 6 -3 10 -1 10 5 0 6 4 9 9 5 5 -3 13 -1 16 5 7 12 127 74 165 85
14 4 54 21 90 37 35 16 77 32 92 35 16 3 31 9 33 13 3 4 -14 4 -36 -1 -45 -10
-65 -5 -27 6 35 11 117 49 293 135 88 43 196 94 240 113 44 19 193 85 332 146
139 61 301 131 360 155 142 58 163 68 163 77 0 16 -52 -2 -200 -71 -194 -90
-370 -167 -525 -230 -66 -27 -199 -83 -295 -125 -96 -42 -265 -114 -375 -159
-110 -46 -217 -91 -237 -100 -21 -9 -38 -12 -38 -6 0 5 15 16 34 24 18 8 36
18 39 23 4 6 49 31 102 58 52 27 93 50 91 52 -2 2 -55 -21 -117 -52 -62 -30
-118 -55 -124 -55 -6 0 -39 -11 -73 -24 -34 -14 -60 -20 -56 -14 6 10 87 47
116 53 9 2 29 11 45 20 15 9 19 13 8 10 -67 -22 -121 -33 -129 -25 -6 6 1 13
15 18 13 5 86 39 163 76 76 36 142 66 147 66 4 0 11 5 14 10 7 11 -74 -19
-128 -47 -46 -24 -290 -124 -293 -120 -2 1 17 13 42 26 24 13 44 28 44 33 0 5
-6 6 -12 1 -19 -11 -40 -13 -36 -2 4 11 278 134 481 216 76 31 136 58 133 60
-5 6 -138 -47 -366 -145 -183 -78 -310 -125 -318 -117 -3 2 1 7 9 9 57 21 71
27 67 31 -2 2 -21 0 -42 -6 -28 -8 -41 -7 -50 1 -8 8 -7 9 7 5 9 -4 17 -3 17
3 0 5 15 15 33 22 104 41 367 154 364 157 -4 3 -118 -42 -172 -68 -11 -5 -65
-25 -119 -44 -75 -27 -102 -33 -110 -24 -8 9 -8 10 2 5 6 -4 12 -2 12 4 0 6
60 39 133 74 384 184 436 210 433 213 -2 3 -46 -17 -97 -43 -192 -96 -523
-238 -543 -231 -6 2 23 16 64 32 41 15 82 34 91 41 8 8 21 14 27 14 6 0 17 8
24 18 7 9 63 37 123 61 111 44 337 152 331 159 -2 2 -45 -17 -95 -43 -100 -50
-165 -76 -341 -135 -132 -45 -120 -42 -120 -32 0 8 104 62 120 62 6 0 51 19
101 41 51 23 102 42 115 43 12 0 22 4 21 8 -1 4 7 14 18 23 13 10 5 9 -23 -5
-24 -12 -50 -19 -58 -16 -9 4 -12 2 -8 -5 4 -7 0 -9 -12 -5 -11 3 -26 1 -34
-4 -13 -9 -13 -10 0 -10 9 -1 5 -6 -10 -15 -15 -8 -38 -12 -55 -9 -20 3 -26 2
-17 -4 11 -7 10 -10 -3 -16 -25 -9 -32 -7 -15 5 12 9 10 10 -7 5 -63 -16 -62
-14 7 14 41 17 118 47 170 66 95 36 194 84 186 91 -2 3 -19 -3 -38 -12 l-33
-16 25 20 c27 21 64 35 54 20 -3 -5 -1 -9 5 -9 5 0 13 5 16 10 11 17 85 51 96
44 6 -3 -8 -15 -31 -25 -42 -19 -160 -89 -160 -95 0 -2 7 0 17 3 12 5 14 3 8
-7 -5 -9 -4 -11 4 -6 6 4 9 11 6 16 -6 10 23 22 36 14 5 -3 17 0 26 6 16 9 15
10 -4 5 -13 -4 -23 -4 -23 0 0 8 183 95 199 95 7 0 9 5 5 11 -4 7 0 9 14 5 11
-4 23 -3 26 2 3 5 42 24 86 42 44 19 79 35 77 36 -1 2 -53 -15 -116 -36 -62
-21 -118 -37 -126 -34 -7 3 -41 -9 -75 -26 -57 -29 -90 -33 -90 -12 0 5 18 16
40 25 22 8 37 11 34 5 -8 -12 32 -2 61 17 11 7 35 16 54 20 25 5 30 10 20 16
-9 5 -10 9 -2 9 6 0 20 3 30 6 15 5 15 4 3 -5 -22 -15 2 -13 41 4 24 10 28 14
14 15 -16 0 -14 4 11 19 17 11 45 18 62 17 17 -1 29 2 26 6 -3 4 2 8 10 8 8 0
19 8 25 17 5 10 13 15 16 11 4 -4 14 0 22 8 9 9 23 12 35 8 15 -4 18 -3 13 6
-5 9 -2 10 13 6 11 -4 23 -2 27 4 10 17 99 58 260 122 82 33 164 66 180 73 17
8 89 37 160 65 148 58 232 103 200 107 -11 1 -159 12 -330 23 -170 11 -375 24
-455 30 -80 5 -153 10 -163 10 -17 0 -17 3 4 40 l22 39 -31 29 c-35 33 -35 22
-5 209 l16 101 81 38 c149 69 301 145 315 159 13 12 13 15 -1 20 -37 14 -149
-18 -327 -94 -102 -43 -242 -102 -311 -131 -69 -28 -134 -55 -145 -60 -11 -5
-60 -25 -110 -45 -49 -20 -126 -53 -170 -72 -44 -19 -136 -57 -205 -85 -200
-80 -610 -257 -768 -330 -42 -20 -72 -19 -72 2 0 5 8 10 18 10 11 0 27 9 37
20 10 11 23 20 29 20 12 0 186 88 201 102 6 5 -46 -18 -115 -51 -149 -73 -179
-79 -59 -13 47 26 92 52 100 58 8 7 48 26 89 44 41 18 143 65 225 105 197 96
292 139 338 154 21 7 36 15 33 18 -2 3 -44 -12 -93 -32 -48 -20 -151 -61 -228
-90 -77 -29 -219 -87 -315 -128 -96 -42 -176 -74 -179 -72 -19 20 33 50 296
170 35 16 61 30 60 32 -3 3 -120 -46 -231 -97 -113 -51 -159 -70 -163 -66 -2
2 11 16 29 31 28 24 29 27 11 23 -13 -4 -23 -5 -23 -3 0 6 133 72 200 100 36
15 139 63 230 107 91 44 237 110 325 148 88 37 275 118 415 180 140 62 270
119 289 127 18 8 31 16 28 19 -3 3 -23 -4 -44 -15 -22 -11 -106 -47 -189 -82
-82 -34 -176 -74 -209 -89 -33 -15 -136 -60 -230 -100 -93 -40 -240 -106 -325
-147 -181 -88 -402 -185 -407 -179 -3 2 17 14 42 27 26 13 58 34 72 46 13 13
30 20 36 17 7 -4 9 -4 5 1 -4 4 36 29 90 56 53 26 95 48 92 48 -3 1 -44 -15
-90 -35 -101 -43 -143 -56 -135 -43 4 5 13 9 21 9 8 0 14 5 14 11 0 6 -10 8
-22 5 -13 -3 1 5 30 19 67 32 67 41 0 15 -33 -13 -47 -15 -37 -6 24 23 728
373 834 414 155 61 492 210 420 186 -11 -4 -28 -7 -37 -8 -10 0 -18 -3 -18 -6
0 -3 -9 -6 -20 -7 -11 -1 -18 2 -15 8 4 5 -5 4 -19 -2 -20 -10 -23 -15 -15
-26 8 -9 8 -13 1 -13 -6 0 -14 5 -17 10 -4 7 -16 5 -33 -4 -15 -8 -56 -26 -92
-41 -36 -15 -85 -39 -110 -53 -25 -15 -47 -27 -50 -27 -3 0 -18 -9 -33 -19
-15 -10 -30 -16 -34 -12 -4 3 -13 0 -22 -7 -20 -18 -98 -48 -133 -52 -15 -2
-41 -11 -59 -20 -25 -13 -34 -14 -43 -4 -7 8 -7 10 0 6 6 -4 29 3 50 14 21 11
47 18 57 15 9 -2 17 0 17 4 0 5 27 19 60 31 33 12 57 25 54 30 -3 5 2 6 10 3
17 -7 77 26 70 38 -3 4 -10 8 -15 8 -6 0 -8 -4 -4 -9 9 -15 -15 -25 -28 -12
-9 9 -7 10 7 5 13 -5 17 -4 12 4 -10 17 11 24 35 12 16 -9 24 -9 33 1 8 9 7
11 -6 6 -10 -3 -20 -2 -23 2 -2 5 3 11 13 14 9 2 26 8 37 12 l20 8 -20 -16
c-23 -19 -13 -22 16 -6 11 5 17 14 14 19 -3 6 1 7 10 4 10 -4 15 -2 13 6 -2 7
3 15 11 18 8 3 11 0 7 -7 -10 -16 -8 -15 74 30 41 22 66 37 55 34 -11 -4 -29
-9 -40 -12 -16 -4 -17 -3 -5 6 30 22 -1 10 -62 -23 -35 -18 -88 -44 -118 -56
-30 -12 -75 -31 -98 -42 -35 -15 -47 -16 -58 -7 -8 6 -17 9 -21 6 -3 -4 2 -10
11 -13 14 -5 15 -9 4 -15 -19 -13 -30 -11 -23 4 4 6 0 5 -7 -4 -18 -22 -88
-61 -88 -50 0 6 9 13 20 16 11 3 21 13 21 21 1 8 2 19 3 25 0 6 125 67 276
136 151 69 349 159 440 200 91 42 190 92 220 113 30 20 81 52 112 70 54 30 97
66 48 40 -12 -7 -33 -9 -48 -5 l-27 7 23 11 c12 5 22 13 22 16 0 3 -28 19 -62
35 l-62 30 -76 -17 c-41 -9 -122 -30 -180 -47 -58 -16 -220 -59 -360 -95 -267
-69 -411 -108 -570 -155 -170 -50 -314 -82 -335 -74 -21 8 -8 24 19 24 12 0
26 4 32 9 10 9 101 41 118 41 5 0 1 -7 -10 -16 -19 -15 -19 -16 1 -9 11 4 29
10 39 13 20 5 20 5 0 13 -18 7 -18 8 0 8 10 1 25 -7 33 -16 8 -10 12 -13 8 -6
-3 7 7 19 24 27 16 9 31 20 33 25 1 5 21 12 42 15 22 4 45 11 53 17 7 6 13 9
13 6 0 -6 63 9 95 22 44 19 229 71 375 106 85 21 162 42 170 47 12 7 10 8 -5
4 -11 -3 -58 -14 -104 -26 -46 -12 -86 -19 -88 -16 -3 3 -17 0 -32 -6 -35 -14
-272 -68 -345 -78 -33 -5 -62 -14 -66 -21 -4 -6 -21 -12 -37 -13 -16 -2 -34
-5 -39 -8 -8 -6 -74 -20 -99 -23 -5 0 -30 -7 -55 -14 -31 -9 -45 -10 -48 -2
-2 6 -8 11 -13 11 -6 0 -7 -4 -4 -10 5 -9 -1 -12 -21 -9 -4 0 -11 -5 -15 -13
-8 -11 -10 -11 -18 0 -6 11 -10 10 -15 -3 -4 -13 -13 -15 -32 -11 -17 5 -23 3
-19 -4 3 -5 -1 -10 -9 -10 -8 0 -121 -29 -252 -65 -207 -56 -239 -63 -256 -51
-18 13 -17 15 24 29 104 37 202 67 233 72 25 4 95 34 95 40 0 2 -11 0 -25 -5
-20 -8 -127 -33 -235 -56 -24 -5 -24 -5 -7 14 10 10 15 26 12 35 -8 20 12 32
30 17 11 -9 15 -9 15 -1 0 6 3 10 8 9 4 -1 17 4 30 11 13 7 38 13 57 14 18 1
31 5 29 8 -4 6 69 23 94 22 6 0 12 3 12 7 0 4 10 10 23 13 12 3 76 19 141 36
65 17 126 31 134 31 22 0 2 -19 -26 -25 -11 -2 -31 -9 -43 -16 -13 -6 -34 -16
-48 -20 -19 -7 -16 -7 14 -3 22 3 43 11 47 17 4 7 8 9 8 4 0 -4 22 4 48 17 47
24 131 52 282 96 41 12 108 32 148 46 78 26 107 31 82 13 -12 -9 -12 -10 3 -5
10 3 24 6 30 6 7 1 1 7 -13 15 -14 8 -19 14 -11 15 8 0 11 3 8 7 -4 3 -15 0
-24 -8 -24 -20 -90 -42 -103 -34 -5 3 -10 2 -10 -3 0 -13 -145 -53 -167 -45
-10 3 -14 2 -10 -2 6 -8 -60 -34 -85 -35 -16 0 -7 17 15 29 16 9 17 10 2 5
-11 -4 -37 -10 -58 -14 -21 -4 -43 -12 -49 -18 -8 -8 1 -8 26 0 28 9 39 9 49
-1 10 -11 7 -12 -12 -6 -13 4 -21 3 -18 -1 5 -8 -47 -16 -115 -17 -15 0 -25
-3 -23 -7 3 -5 -13 -10 -35 -12 -45 -4 -44 -4 -30 23 8 15 15 17 29 10 12 -7
22 -6 29 1 6 6 22 12 34 14 13 1 25 3 28 3 3 1 -2 6 -10 12 -13 9 -13 10 0 8
8 -1 29 3 45 10 17 7 53 19 80 26 62 17 409 119 490 144 33 10 111 31 173 47
73 19 112 33 112 42 0 9 -7 11 -20 7 -11 -4 -20 -2 -20 4 0 12 20 12 65 1 27
-7 27 -8 6 -9 -13 0 -22 -4 -18 -7 9 -10 108 17 101 27 -3 5 -12 9 -20 9 -8 0
-12 -4 -9 -10 7 -12 -19 -12 -55 0 -23 7 -23 8 -3 9 34 2 54 12 46 25 -4 6 2
4 12 -4 16 -13 18 -13 13 0 -7 23 18 41 61 45 21 1 43 5 47 7 11 7 69 24 107
32 15 4 27 13 27 20 0 8 6 16 13 19 9 3 9 7 -2 20 -12 15 -11 17 3 17 18 0 63
46 118 120 21 28 55 56 91 75 57 30 68 42 45 49 -7 2 -103 18 -213 36 -110 17
-247 40 -305 50 -58 10 -122 21 -142 25 l-38 6 0 178 c0 265 -38 599 -105 928
-8 40 -15 74 -15 76 0 6 53 16 440 87 562 104 636 118 995 185 193 36 360 69
373 72 18 4 22 12 22 48 l0 43 -47 11 c-191 42 -766 174 -1158 266 -33 7 -91
21 -130 29 -38 9 -216 50 -395 91 -179 42 -404 94 -500 116 -96 22 -249 58
-340 79 -91 22 -295 69 -455 105 -927 211 -843 198 -1030 164z m2482 -2985
c-3 -3 -12 -4 -19 -1 -8 3 -5 6 6 6 11 1 17 -2 13 -5z m-106 -77 c-5 -5 -17
-5 -28 2 -16 9 -15 10 9 9 16 -2 24 -6 19 -11z m-46 -8 c19 -9 19 -9 -2 -5
-12 2 -24 -1 -26 -7 -2 -6 -9 -7 -16 -3 -11 7 -11 10 0 17 17 10 18 10 44 -2z
m-70 -18 c-3 -6 -11 -11 -16 -11 -5 0 -4 6 3 14 14 16 24 13 13 -3z m-35 -15
c0 -2 -11 -6 -25 -8 -14 -3 -25 -1 -25 3 0 5 11 9 25 9 14 0 25 -2 25 -4z
m-109 -32 c-18 -8 -38 -13 -45 -11 -6 3 5 9 24 15 50 15 60 13 21 -4z m-71
-13 c0 -9 -41 -23 -49 -16 -3 4 28 20 47 24 1 1 2 -3 2 -8z m-100 -31 c0 -5
-5 -10 -11 -10 -5 0 -7 5 -4 10 3 6 8 10 11 10 2 0 4 -4 4 -10z m939 -244
c-10 -9 -69 -36 -69 -32 0 7 52 35 64 36 5 0 7 -2 5 -4z m-1929 -140 c0 -3 -4
-8 -10 -11 -5 -3 -10 -1 -10 4 0 6 5 11 10 11 6 0 10 -2 10 -4z m-40 -26 c-20
-13 -33 -13 -25 0 3 6 14 10 23 10 15 0 15 -2 2 -10z m475 -63 c6 -5 -5 -5
-24 -2 -19 4 -36 3 -40 -3 -8 -13 -329 -92 -347 -85 -8 3 -20 1 -27 -5 -6 -5
-21 -6 -32 -2 -16 6 -11 9 22 14 23 4 47 5 53 1 5 -3 10 -2 10 3 0 10 64 27
90 24 8 -1 37 8 64 19 56 24 209 59 216 50 3 -3 10 -9 15 -14z m-47 -75 c29
-19 -62 -49 -443 -147 -94 -24 -182 -48 -197 -54 -42 -16 -220 -59 -278 -68
-120 -17 -160 4 -68 35 106 36 830 220 898 228 19 3 36 7 39 9 7 8 35 5 49 -3z
m1042 -57 c0 -6 -56 -35 -67 -35 -4 1 8 9 27 20 39 22 40 22 40 15z m125 -5
c3 -5 1 -10 -4 -10 -6 0 -11 5 -11 10 0 6 2 10 4 10 3 0 8 -4 11 -10z m-64
-30 c-13 -11 -28 -20 -35 -20 -6 0 3 9 19 19 39 25 46 25 16 1z m-71 -35 c-14
-8 -29 -14 -35 -14 -5 0 1 6 15 14 14 8 30 14 35 14 6 0 -1 -6 -15 -14z m-85
-35 c-3 -5 -12 -10 -18 -10 -7 0 -6 4 3 10 19 12 23 12 15 0z m-345 -35 c-14
-8 -29 -14 -35 -14 -5 0 1 6 15 14 14 8 30 14 35 14 6 0 -1 -6 -15 -14z m-63
-31 c-3 -3 -12 -4 -19 -1 -8 3 -5 6 6 6 11 1 17 -2 13 -5z m-61 -79 c-11 -8
-25 -15 -30 -15 -6 1 0 7 14 15 32 19 40 18 16 0z m109 -11 c-26 -20 -55 -36
-55 -30 0 5 63 46 70 46 3 -1 -4 -8 -15 -16z m-68 -28 c0 -8 -6 -12 -15 -8 -9
3 -13 1 -9 -5 4 -6 0 -14 -8 -17 -12 -4 -13 -2 -5 13 5 11 15 22 22 24 7 3 13
6 14 6 0 1 1 -5 1 -13z m-248 -130 c-2 -2 -15 -9 -29 -15 -24 -11 -24 -11 -6
3 16 13 49 24 35 12z m-489 -410 c0 -2 -7 -7 -16 -10 -8 -3 -12 -2 -9 4 6 10
25 14 25 6z m-65 -36 c-3 -5 -12 -10 -18 -10 -7 0 -6 4 3 10 19 12 23 12 15 0z
m105 -40 c0 -5 -7 -10 -15 -10 -8 0 -15 5 -15 10 0 6 7 10 15 10 8 0 15 -4 15
-10z m-90 -165 c0 -2 -9 -3 -19 -2 -11 0 -18 5 -15 9 4 6 34 0 34 -7z m954
-72 c-8 -48 -11 -53 -32 -53 -16 -1 -16 -1 1 -11 19 -11 23 -34 7 -44 -6 -4
-9 -1 -8 6 2 6 -3 14 -11 17 -9 3 -11 0 -6 -9 4 -8 -3 -4 -15 8 -21 20 -22 24
-10 53 12 30 53 70 72 70 5 0 6 -17 2 -37z m540 -352 c7 -10 -33 -23 -47 -14
-10 6 11 23 30 23 6 0 14 -4 17 -9z m-198 -36 c-11 -8 -25 -15 -30 -15 -6 1 0
7 14 15 32 19 40 18 16 0z m-61 -50 c-22 -14 -44 -25 -50 -25 -5 0 -3 -5 5
-10 13 -8 13 -10 -2 -10 -26 0 -31 18 -7 25 17 6 19 9 8 17 -11 8 -10 8 4 4
10 -3 28 1 40 9 12 8 26 15 32 15 5 0 -8 -12 -30 -25z m0 -25 c-3 -5 -12 -10
-18 -10 -7 0 -6 4 3 10 19 12 23 12 15 0z m-130 -30 c-3 -5 -12 -10 -18 -10
-7 0 -6 4 3 10 19 12 23 12 15 0z m45 0 c-8 -5 -19 -10 -25 -10 -5 0 -3 5 5
10 8 5 20 10 25 10 6 0 3 -5 -5 -10z m-110 -30 c-8 -5 -19 -10 -25 -10 -5 0
-3 5 5 10 8 5 20 10 25 10 6 0 3 -5 -5 -10z m-230 -179 c0 -10 -61 -34 -68
-27 -4 5 47 35 61 36 4 0 7 -4 7 -9z m77 -12 c-22 -11 -41 -18 -44 -15 -4 3 9
12 28 20 50 22 60 18 16 -5z m-67 -26 c-8 -3 -28 -12 -45 -20 l-30 -14 24 21
c13 11 33 20 45 19 14 0 16 -2 6 -6z"/>
<path d="M4478 10113 c7 -3 16 -2 19 1 4 3 -2 6 -13 5 -11 0 -14 -3 -6 -6z"/>
<path d="M3710 9934 c-96 -18 -263 -48 -370 -66 -107 -18 -198 -37 -202 -43
-4 -5 -8 -24 -8 -41 l0 -32 103 -26 c56 -14 163 -42 237 -61 74 -19 138 -35
141 -35 4 0 9 18 13 41 9 55 49 131 91 174 20 19 70 55 113 80 42 25 72 44 67
44 -6 -1 -89 -16 -185 -35z"/>
<path d="M9951 7594 c0 -11 3 -14 6 -6 3 7 2 16 -1 19 -3 4 -6 -2 -5 -13z"/>
<path d="M9802 7529 c7 -4 4 -9 -8 -12 -10 -3 -1 -3 21 0 54 7 63 18 15 18
-22 1 -35 -2 -28 -6z"/>
<path d="M9720 7520 c-14 -4 -18 -9 -10 -10 11 -1 9 -4 -5 -11 -17 -8 -17 -9
5 -4 14 2 31 5 38 5 7 0 11 4 8 9 -4 5 0 12 6 14 21 9 -14 6 -42 -3z"/>
<path d="M9768 7473 c7 -3 16 -2 19 1 4 3 -2 6 -13 5 -11 0 -14 -3 -6 -6z"/>
<path d="M9728 7463 c7 -3 16 -2 19 1 4 3 -2 6 -13 5 -11 0 -14 -3 -6 -6z"/>
<path d="M9968 7453 c6 -2 18 -2 25 0 6 3 1 5 -13 5 -14 0 -19 -2 -12 -5z"/>
<path d="M9895 7440 c-25 -11 1 -11 35 0 20 6 21 8 5 8 -11 0 -29 -3 -40 -8z"/>
<path d="M9810 7415 c-19 -7 -28 -13 -20 -13 8 0 31 6 50 13 19 7 28 13 20 13
-8 0 -31 -6 -50 -13z"/>
<path d="M9748 7393 c7 -3 16 -2 19 1 4 3 -2 6 -13 5 -11 0 -14 -3 -6 -6z"/>
<path d="M9690 7380 c-13 -9 -13 -10 0 -10 8 0 22 5 30 10 13 9 13 10 0 10 -8
0 -22 -5 -30 -10z"/>
<path d="M9648 7363 c7 -3 16 -2 19 1 4 3 -2 6 -13 5 -11 0 -14 -3 -6 -6z"/>
<path d="M9595 7350 c-13 -6 -15 -9 -5 -9 8 0 22 4 30 9 18 12 2 12 -25 0z"/>
<path d="M9520 7328 c-19 -6 -30 -12 -24 -15 7 -2 27 3 45 11 39 17 29 19 -21
4z"/>
<path d="M9448 7309 c-2 -7 -22 -13 -43 -14 -63 -3 -67 -4 -60 -15 3 -6 -1 -7
-9 -4 -9 4 -16 1 -16 -6 0 -8 -9 -10 -24 -6 -13 3 -35 2 -48 -3 l-23 -8 23 -7
c25 -8 89 9 114 31 10 9 24 13 32 10 19 -7 87 14 80 25 -7 12 -22 10 -26 -3z
m-161 -55 c-3 -3 -12 -4 -19 -1 -8 3 -5 6 6 6 11 1 17 -2 13 -5z"/>
<path d="M9910 7310 c-20 -6 -21 -8 -5 -8 11 0 34 4 50 8 27 7 27 8 5 8 -14 0
-36 -4 -50 -8z"/>
<path d="M9810 7290 l-25 -8 25 0 c14 0 34 3 45 8 l20 9 -20 -1 c-11 0 -31 -4
-45 -8z"/>
<path d="M9678 7263 c7 -3 16 -2 19 1 4 3 -2 6 -13 5 -11 0 -14 -3 -6 -6z"/>
<path d="M9878 7263 c7 -3 16 -2 19 1 4 3 -2 6 -13 5 -11 0 -14 -3 -6 -6z"/>
<path d="M9838 7253 c7 -3 16 -2 19 1 4 3 -2 6 -13 5 -11 0 -14 -3 -6 -6z"/>
<path d="M9710 7235 c-36 -7 -54 -13 -40 -13 14 -1 54 5 90 12 36 8 54 14 40
14 -14 0 -54 -6 -90 -13z"/>
<path d="M7808 7213 c7 -3 16 -2 19 1 4 3 -2 6 -13 5 -11 0 -14 -3 -6 -6z"/>
<path d="M9535 7200 l-20 -9 20 0 c11 0 29 4 40 9 l20 9 -20 0 c-11 0 -29 -4
-40 -9z"/>
<path d="M9617 7203 c-9 -2 -15 -9 -12 -14 10 -15 32 -10 32 6 0 8 -1 14 -1
14 -1 -1 -9 -3 -19 -6z"/>
<path d="M9658 7193 c7 -3 16 -2 19 1 4 3 -2 6 -13 5 -11 0 -14 -3 -6 -6z"/>
<path d="M9488 7183 c7 -3 16 -2 19 1 4 3 -2 6 -13 5 -11 0 -14 -3 -6 -6z"/>
<path d="M9415 7170 l-20 -9 20 0 c11 0 29 4 40 9 l20 9 -20 0 c-11 0 -29 -4
-40 -9z"/>
<path d="M9358 7158 c5 -5 16 -8 23 -6 8 3 3 7 -10 11 -17 4 -21 3 -13 -5z"/>
<path d="M9305 7140 c-13 -5 -14 -9 -5 -9 8 0 24 4 35 9 13 5 14 9 5 9 -8 0
-24 -4 -35 -9z"/>
<path d="M8861 7034 c-46 -12 -86 -26 -89 -29 -8 -8 40 1 84 15 19 7 41 9 49
6 8 -3 15 -2 15 2 0 5 12 13 28 19 46 18 1 12 -87 -13z"/>
<path d="M8485 7020 c-25 -11 1 -11 35 0 20 6 21 8 5 8 -11 0 -29 -3 -40 -8z"/>
<path d="M8705 6990 c-25 -11 1 -11 35 0 20 6 21 8 5 8 -11 0 -29 -3 -40 -8z"/>
<path d="M8450 6970 c-9 -6 -10 -10 -3 -10 6 0 15 5 18 10 8 12 4 12 -15 0z"/>
<path d="M8390 6950 c-18 -12 -2 -12 25 0 13 6 15 9 5 9 -8 0 -22 -4 -30 -9z"/>
<path d="M9972 6898 c-29 -12 -51 -23 -49 -25 5 -4 117 36 117 43 0 7 -13 4
-68 -18z"/>
<path d="M9900 6835 c-14 -8 -20 -14 -15 -14 6 0 21 6 35 14 14 8 21 14 15 14
-5 0 -21 -6 -35 -14z"/>
<path d="M9710 6785 c-14 -8 -20 -14 -15 -14 6 0 21 6 35 14 14 8 21 14 15 14
-5 0 -21 -6 -35 -14z"/>
<path d="M9752 6769 c-29 -12 -52 -23 -50 -25 4 -3 109 34 117 42 9 9 -16 2
-67 -17z"/>
<path d="M9650 6755 c-14 -8 -20 -14 -14 -15 5 0 19 7 30 15 24 18 16 19 -16
0z"/>
<path d="M10040 6690 c-8 -5 -10 -10 -5 -10 6 0 17 5 25 10 8 5 11 10 5 10 -5
0 -17 -5 -25 -10z"/>
<path d="M9980 6665 c-14 -8 -20 -14 -15 -14 6 0 21 6 35 14 14 8 21 14 15 14
-5 0 -21 -6 -35 -14z"/>
<path d="M9895 6629 c-22 -10 -29 -16 -15 -13 28 7 80 33 65 33 -5 0 -28 -9
-50 -20z"/>
<path d="M9816 6595 c-11 -8 -15 -15 -10 -15 6 0 19 7 30 15 10 8 15 14 9 14
-5 0 -19 -6 -29 -14z"/>
<path d="M9965 6540 c-3 -6 1 -7 9 -4 18 7 21 14 7 14 -6 0 -13 -4 -16 -10z"/>
<path d="M9360 6240 c-8 -5 -10 -10 -5 -10 6 0 17 5 25 10 8 5 11 10 5 10 -5
0 -17 -5 -25 -10z"/>
<path d="M9180 6220 c-8 -5 -10 -10 -5 -10 6 0 17 5 25 10 8 5 11 10 5 10 -5
0 -17 -5 -25 -10z"/>
<path d="M9403 6220 c-34 -14 -28 -21 7 -9 17 6 30 13 30 15 0 6 -12 4 -37 -6z"/>
<path d="M9022 6157 c-67 -27 -121 -52 -119 -53 4 -5 198 70 235 90 50 28 8
14 -116 -37z"/>
<path d="M9275 6185 c-25 -12 -26 -14 -5 -9 14 4 29 10 35 15 12 12 5 11 -30
-6z"/>
<path d="M9290 6165 c-25 -13 -41 -24 -37 -25 11 0 87 39 87 45 0 7 0 7 -50
-20z"/>
<path d="M8740 6160 c-8 -5 -10 -10 -5 -10 6 0 17 5 25 10 8 5 11 10 5 10 -5
0 -17 -5 -25 -10z"/>
<path d="M9180 6150 c-8 -5 -10 -10 -5 -10 6 0 17 5 25 10 8 5 11 10 5 10 -5
0 -17 -5 -25 -10z"/>
<path d="M9190 6120 c-8 -5 -10 -10 -5 -10 6 0 17 5 25 10 8 5 11 10 5 10 -5
0 -17 -5 -25 -10z"/>
<path d="M8950 6090 c-8 -5 -10 -10 -5 -10 6 0 17 5 25 10 8 5 11 10 5 10 -5
0 -17 -5 -25 -10z"/>
<path d="M9120 6090 c-8 -5 -10 -10 -5 -10 6 0 17 5 25 10 8 5 11 10 5 10 -5
0 -17 -5 -25 -10z"/>
<path d="M9022 6053 c-35 -14 -61 -27 -59 -29 3 -4 128 44 136 52 10 10 -19 1
-77 -23z"/>
<path d="M8720 6030 c-8 -5 -10 -10 -5 -10 6 0 17 5 25 10 8 5 11 10 5 10 -5
0 -17 -5 -25 -10z"/>
<path d="M4636 5975 c-3 -8 -1 -15 3 -15 5 0 11 7 15 15 3 8 1 15 -3 15 -5 0
-11 -7 -15 -15z"/>
<path d="M10375 5469 c-38 -16 -59 -27 -44 -25 28 6 140 55 124 55 -5 0 -41
-13 -80 -30z"/>
<path d="M10255 5425 c-25 -12 -26 -14 -5 -9 28 7 60 23 45 23 -5 0 -23 -6
-40 -14z"/>
<path d="M10145 5383 c-64 -27 -86 -40 -45 -28 35 11 127 53 115 53 -5 0 -37
-11 -70 -25z"/>
<path d="M10005 5325 c-27 -13 -45 -23 -40 -24 6 0 33 11 60 24 28 13 46 23
40 24 -5 0 -32 -11 -60 -24z"/>
<path d="M10230 5310 c-9 -6 -10 -10 -3 -10 6 0 15 5 18 10 8 12 4 12 -15 0z"/>
<path d="M10160 5280 c-8 -5 -10 -10 -5 -10 6 0 17 5 25 10 8 5 11 10 5 10 -5
0 -17 -5 -25 -10z"/>
<path d="M10085 5249 c-22 -10 -29 -16 -15 -13 28 7 80 33 65 33 -5 0 -28 -9
-50 -20z"/>
<path d="M10010 5220 c-8 -5 -10 -10 -5 -10 6 0 17 5 25 10 8 5 11 10 5 10 -5
0 -17 -5 -25 -10z"/>
<path d="M9570 5195 c-14 -8 -20 -14 -14 -15 5 0 19 7 30 15 24 18 16 19 -16
0z"/>
<path d="M9800 5190 c-9 -6 -10 -10 -3 -10 6 0 15 5 18 10 8 12 4 12 -15 0z"/>
<path d="M9925 5185 c-25 -12 -26 -14 -5 -9 28 7 60 23 45 23 -5 0 -23 -6 -40
-14z"/>
<path d="M9860 5160 c-8 -5 -10 -10 -5 -10 6 0 17 5 25 10 8 5 11 10 5 10 -5
0 -17 -5 -25 -10z"/>
<path d="M9610 5125 c-33 -19 -21 -19 21 0 19 8 27 14 19 14 -8 0 -26 -6 -40
-14z"/>
<path d="M9780 5130 c-8 -5 -10 -10 -5 -10 6 0 17 5 25 10 8 5 11 10 5 10 -5
0 -17 -5 -25 -10z"/>
<path d="M10900 5121 c-25 -9 -61 -25 -80 -33 -19 -9 -91 -40 -160 -68 -69
-29 -147 -63 -175 -77 -50 -26 -110 -39 -99 -22 3 5 12 9 20 9 8 0 14 4 14 10
0 5 -26 -2 -57 -16 -32 -15 -65 -28 -75 -31 -9 -3 -19 -15 -22 -26 -5 -18 -8
-19 -15 -8 -8 12 -38 2 -171 -59 -88 -40 -163 -77 -166 -81 -9 -14 15 -10 41
7 14 9 25 12 25 7 0 -18 -296 -146 -313 -136 -7 3 -9 3 -5 -2 7 -7 -55 -36
-363 -170 -42 -18 -95 -43 -117 -54 -42 -21 -69 -29 -42 -11 13 8 12 10 -2 10
-10 0 -18 -5 -18 -11 0 -5 -4 -7 -10 -4 -5 3 -10 -2 -11 -12 0 -11 -3 -13 -6
-5 -4 10 -10 10 -29 -3 -13 -8 -24 -13 -24 -9 0 3 -10 0 -22 -8 -13 -8 -40
-18 -61 -22 -21 -4 -35 -11 -32 -16 3 -6 -1 -7 -9 -4 -9 3 -17 -2 -21 -15 -3
-12 -27 -31 -53 -44 -35 -16 -52 -32 -65 -61 -18 -37 -20 -38 -55 -32 -38 7
-499 48 -727 66 -71 5 -218 17 -325 25 -107 8 -256 19 -330 25 -283 22 -522
40 -725 55 -115 8 -241 17 -280 20 l-70 5 35 -19 c20 -11 38 -15 41 -9 4 5 13
3 22 -6 17 -18 32 -21 22 -6 -6 9 4 8 43 -7 9 -3 25 -5 36 -4 10 2 15 -2 12
-7 -4 -6 -1 -14 6 -18 16 -10 72 -11 79 -2 3 4 22 -1 44 -12 21 -11 42 -17 48
-13 6 4 7 1 2 -7 -6 -10 -4 -12 7 -7 20 7 38 -11 31 -32 -4 -13 -3 -14 5 -2 7
10 7 21 1 33 -6 12 -6 18 1 18 5 0 10 -5 10 -11 0 -6 7 -9 15 -5 8 3 14 0 12
-6 -1 -5 6 -12 16 -13 9 -2 15 1 11 6 -3 5 2 9 11 9 9 0 13 -5 10 -10 -3 -6 6
-15 20 -20 15 -6 33 -17 42 -25 12 -13 18 -13 31 -3 9 7 13 8 10 3 -4 -6 -3
-17 3 -25 7 -12 9 -12 9 -1 0 11 3 11 15 1 12 -10 19 -10 27 -2 7 7 17 12 23
12 5 0 4 -4 -4 -9 -26 -16 -1 -30 47 -25 47 4 47 4 20 -11 -36 -20 -35 -26 2
-15 18 5 32 5 36 -1 3 -5 10 -6 16 -3 6 4 9 3 6 -2 -3 -5 0 -14 7 -21 11 -10
15 -10 19 0 5 9 7 9 12 -1 3 -6 11 -9 16 -6 7 4 8 2 4 -4 -4 -7 -2 -12 4 -12
6 0 8 -4 5 -10 -3 -5 -1 -18 5 -27 8 -14 10 -14 9 -3 -1 8 -1 22 0 30 1 13 2
13 11 0 7 -11 10 -11 10 -2 0 8 8 5 22 -8 23 -22 58 -27 58 -9 0 8 5 8 15 -1
8 -7 15 -21 15 -31 0 -20 15 -26 24 -10 8 12 43 2 58 -17 10 -12 10 -14 1 -8
-7 4 -13 2 -13 -4 0 -6 14 -9 35 -7 22 3 32 0 28 -6 -4 -6 0 -8 10 -4 11 4 14
2 10 -9 -3 -7 -1 -14 5 -14 6 0 13 6 15 13 3 7 6 5 6 -5 1 -10 6 -18 12 -18 5
0 8 4 5 9 -3 5 0 11 7 14 9 3 13 -6 14 -31 1 -20 6 -38 12 -40 6 -2 9 -7 6
-11 -2 -5 9 -8 26 -9 16 0 27 4 24 9 -4 5 -15 9 -26 9 -22 0 -23 4 -9 30 7 14
6 23 -6 35 -9 9 -14 19 -11 22 10 9 37 -24 37 -46 0 -12 6 -21 16 -21 9 0 12
5 8 12 -4 6 -3 8 4 4 6 -3 9 -15 7 -26 -2 -11 0 -20 6 -20 5 0 9 6 9 13 0 9 3
8 9 -2 7 -11 27 -8 114 13 59 15 128 29 155 33 53 6 78 -4 200 -79 199 -123
286 -168 311 -161 16 4 20 2 16 -9 -6 -16 33 -48 60 -48 8 0 15 -4 15 -8 0 -9
59 -36 77 -35 7 0 11 -4 10 -11 -1 -6 10 -12 26 -14 15 -2 27 2 27 8 0 6 -4 9
-9 5 -5 -3 -12 -1 -16 5 -4 6 4 9 19 8 20 -2 23 -5 15 -19 -13 -24 -11 -29 7
-29 9 0 12 5 8 12 -4 7 -3 8 5 4 6 -4 9 -11 6 -16 -3 -4 3 -14 12 -21 15 -12
16 -12 10 6 -7 20 -7 20 8 1 10 -14 18 -17 25 -10 14 14 1 46 -16 40 -7 -3
-16 -1 -19 3 -2 5 3 11 13 13 19 5 45 -15 34 -27 -4 -5 3 -6 15 -3 12 3 22 3
21 -1 -3 -24 4 -60 15 -75 12 -16 13 -16 14 3 1 12 -2 21 -8 21 -5 0 -9 3 -9
8 0 4 16 7 35 8 26 1 36 -4 41 -19 6 -19 7 -20 19 -3 9 11 15 14 20 6 5 -8 10
-8 20 0 10 9 15 6 20 -12 4 -12 14 -28 21 -36 12 -11 14 -10 14 7 0 21 15 29
22 12 2 -5 10 -2 18 7 13 14 12 15 -3 9 -13 -5 -17 -1 -17 14 0 12 -8 23 -20
26 -25 7 -25 16 -2 34 15 13 16 12 4 -2 -10 -14 -10 -18 3 -23 13 -5 19 8 17
34 0 3 8 7 19 7 17 2 18 0 4 -14 -9 -9 -14 -22 -11 -30 3 -8 6 -16 6 -19 0 -2
7 0 17 3 10 4 14 2 9 -5 -3 -6 3 -17 15 -25 11 -9 22 -27 23 -41 0 -14 4 -26
8 -26 4 0 6 16 5 35 -2 26 -7 35 -19 35 -23 0 -23 12 0 26 15 10 20 8 30 -15
8 -19 19 -27 36 -27 15 0 22 5 19 13 -3 7 0 13 6 13 6 0 11 -5 11 -11 0 -5 5
-7 10 -4 6 3 10 1 10 -4 0 -6 5 -11 11 -11 6 0 9 6 6 13 -10 26 7 38 31 21 25
-17 29 -31 7 -31 -8 0 -12 4 -9 9 3 4 1 8 -4 8 -5 0 -12 -9 -15 -20 -6 -22 1
-24 37 -11 17 7 26 6 30 -2 4 -7 4 -1 0 13 -9 39 -5 130 6 130 10 0 38 -38 33
-44 -4 -3 2 -6 11 -6 13 0 16 -5 12 -16 -4 -10 1 -22 11 -31 17 -13 17 -13 -2
-11 -11 1 -26 -1 -34 -6 -9 -6 -12 -5 -7 2 3 6 2 14 -4 17 -8 5 -8 11 0 20 9
11 7 12 -8 8 -18 -4 -27 -33 -10 -33 4 0 8 -15 9 -32 0 -18 3 -28 5 -21 4 8
16 10 33 7 25 -5 29 -3 34 23 3 15 1 33 -4 39 -4 5 -6 22 -3 37 3 20 0 27 -11
27 -13 0 -12 3 3 18 12 13 22 16 34 10 13 -6 16 -5 12 6 -4 11 0 13 15 9 23
-6 28 6 9 25 -16 16 -28 15 -28 -2 0 -25 -19 -28 -37 -7 -13 15 -19 17 -25 8
-6 -9 -8 -8 -8 3 0 12 -10 15 -39 13 -33 -1 -38 1 -34 17 3 10 14 20 25 23 14
4 18 2 14 -9 -4 -9 2 -14 16 -14 17 0 18 2 8 15 -7 9 -10 27 -6 45 4 24 2 30
-11 30 -9 0 -14 3 -10 6 3 4 27 0 52 -7 30 -9 45 -19 45 -30 0 -9 7 -19 15
-23 23 -9 18 -28 -7 -26 -39 4 -58 0 -58 -9 0 -6 18 -9 40 -8 22 2 40 -1 40
-6 0 -5 6 -7 14 -4 10 4 16 -2 19 -16 3 -17 5 -16 6 7 1 21 -3 27 -14 22 -9
-3 -15 0 -15 9 0 8 5 15 11 15 7 0 9 9 6 21 -3 12 0 27 7 34 11 11 18 9 41
-11 28 -24 65 -32 65 -14 0 6 -6 11 -12 11 -29 3 -34 5 -57 21 -13 9 -20 21
-16 27 9 16 -4 14 -20 -3 -8 -7 -11 -16 -8 -20 3 -3 -2 -9 -12 -12 -11 -5 -21
-1 -27 10 -7 12 -16 15 -31 10 -18 -5 -20 -4 -9 7 6 7 12 28 12 47 0 21 7 41
18 49 9 8 12 12 5 9 -6 -4 -13 -1 -15 5 -3 8 -10 8 -26 -2 -17 -11 -24 -11
-34 -1 -9 9 -9 12 0 12 7 0 12 7 12 16 0 12 3 14 13 6 7 -6 19 -7 26 -3 10 7
8 13 -10 26 l-24 17 31 -5 c30 -6 32 -4 30 23 -1 30 -16 44 -16 16 0 -25 -16
-27 -40 -6 l-24 20 24 -2 c14 -2 24 3 25 13 2 12 -5 17 -22 17 -45 0 -43 16 7
72 27 30 50 63 50 73 0 9 4 17 10 17 5 0 7 -8 4 -17 -2 -10 1 -8 7 5 7 12 16
22 21 22 4 0 8 7 8 16 0 8 4 13 9 10 5 -3 11 1 14 9 4 9 1 12 -8 9 -9 -4 -13
1 -12 15 1 16 4 18 16 8 11 -9 15 -9 18 1 3 6 12 12 21 12 12 0 13 3 4 12 -17
17 -15 33 3 18 13 -10 15 -9 15 9 0 13 4 19 10 16 15 -9 40 14 40 36 0 11 4
19 9 19 17 0 63 49 56 59 -3 6 0 11 9 11 8 0 17 -6 19 -12 3 -7 6 -3 6 10 1
12 7 22 16 22 8 0 15 5 15 11 0 5 5 7 10 4 6 -3 10 2 10 12 0 11 17 27 45 42
25 13 45 30 45 37 0 8 9 14 19 14 32 0 51 11 51 30 0 22 16 35 25 20 9 -14 25
-12 25 3 0 17 42 37 75 37 13 0 26 4 30 10 3 5 12 7 20 3 23 -8 18 13 -7 30
-13 8 -21 17 -18 19 3 3 55 26 115 53 61 26 148 67 195 90 47 24 188 88 313
144 277 123 309 139 302 151 -9 14 -34 12 -85 -9z m-550 -225 c-8 -8 -28 -17
-45 -21 l-30 -6 35 19 c42 24 59 27 40 8z m-156 -78 c-3 -4 -15 -8 -27 -8 -15
0 -18 3 -9 8 17 11 43 11 36 0z m-98 -43 c-23 -18 -33 -19 -41 -5 -3 5 0 7 8
4 8 -3 18 -1 22 5 3 6 12 11 18 11 7 0 3 -7 -7 -15z m-76 -35 c-20 -13 -30
-12 -30 1 0 5 4 8 9 4 5 -3 13 0 16 6 4 5 10 8 13 4 4 -3 0 -10 -8 -15z
m-2835 -700 c3 -5 1 -10 -4 -10 -6 0 -11 5 -11 10 0 6 2 10 4 10 3 0 8 -4 11
-10z m65 -42 c0 -6 -6 -5 -15 2 -8 7 -15 14 -15 16 0 2 7 1 15 -2 8 -4 15 -11
15 -16z m185 -58 c-3 -5 -14 -10 -23 -9 -14 0 -13 2 3 9 27 11 27 11 20 0z
m70 -10 c3 -5 -1 -10 -10 -10 -9 0 -13 5 -10 10 3 6 8 10 10 10 2 0 7 -4 10
-10z m1840 -30 c3 -5 1 -10 -4 -10 -6 0 -11 5 -11 10 0 6 2 10 4 10 3 0 8 -4
11 -10z m-1675 -60 c0 -5 -2 -10 -4 -10 -3 0 -8 5 -11 10 -3 6 -1 10 4 10 6 0
11 -4 11 -10z m1648 -45 c-3 -3 -9 2 -12 12 -6 14 -5 15 5 6 7 -7 10 -15 7
-18z m54 -2 c-6 -3 -10 -9 -6 -14 3 -5 0 -9 -5 -9 -6 0 -11 -4 -11 -10 0 -5 5
-9 12 -7 6 1 14 -6 16 -15 2 -12 -3 -18 -16 -18 -16 0 -19 7 -19 38 1 24 6 39
16 43 9 4 18 4 21 1 3 -2 -1 -7 -8 -9z m-102 -24 c0 -5 -10 -9 -21 -9 -18 0
-19 2 -9 15 12 15 30 12 30 -6z m24 -5 c3 -8 2 -12 -4 -9 -6 3 -10 10 -10 16
0 14 7 11 14 -7z m-24 -28 c0 -2 -7 -9 -15 -16 -13 -11 -14 -10 -9 4 5 14 24
23 24 12z m50 -7 c0 -4 -9 -7 -19 -6 -11 0 -18 4 -16 7 6 9 35 8 35 -1z m-90
-19 c0 -5 -5 -10 -11 -10 -5 0 -7 5 -4 10 3 6 8 10 11 10 2 0 4 -4 4 -10z m30
-45 c0 -8 -7 -15 -16 -15 -14 0 -14 3 -4 15 7 8 14 15 16 15 2 0 4 -7 4 -15z
m185 -6 c11 -17 2 -18 -19 -3 -17 12 -17 14 -4 14 9 0 20 -5 23 -11z m-265
-49 c0 -5 -5 -10 -11 -10 -5 0 -7 5 -4 10 3 6 8 10 11 10 2 0 4 -4 4 -10z
m-50 -25 c0 -2 -10 -9 -22 -15 -22 -11 -22 -10 -4 4 21 17 26 19 26 11z m118
-1 c14 -4 22 -14 22 -28 0 -20 1 -20 20 4 23 31 21 5 -3 -30 -9 -13 -17 -32
-17 -41 0 -12 -8 -16 -25 -15 -14 0 -25 7 -25 14 0 17 -19 15 -26 -3 -4 -8
-11 -15 -17 -15 -8 0 -8 3 0 11 6 6 9 18 6 27 -5 11 -3 13 8 7 12 -7 12 -6 1
7 -7 9 -9 19 -4 22 10 6 42 -29 42 -47 0 -8 3 -7 10 3 5 9 5 19 -1 26 -8 9 -5
11 11 7 17 -4 19 -2 13 13 -10 27 -25 35 -42 21 -12 -10 -13 -9 -6 2 6 11 4
13 -8 8 -10 -3 -17 -2 -17 3 0 11 24 13 58 4z m-326 -21 c-6 -2 -9 -10 -6 -15
4 -7 2 -8 -4 -4 -18 11 -14 26 6 25 10 0 12 -3 4 -6z m61 -32 c21 6 35 5 42
-3 7 -8 6 -9 -3 -4 -7 4 -24 0 -37 -8 -14 -9 -25 -13 -25 -9 0 5 -5 1 -10 -7
-7 -11 -9 -4 -8 25 0 22 3 30 5 18 4 -19 8 -20 36 -12z m361 13 c3 -8 2 -12
-4 -9 -6 3 -10 10 -10 16 0 14 7 11 14 -7z m-569 -24 c3 -6 -1 -7 -9 -4 -18 7
-21 14 -7 14 6 0 13 -4 16 -10z m115 6 c0 -3 -4 -8 -10 -11 -5 -3 -10 -1 -10
4 0 6 5 11 10 11 6 0 10 -2 10 -4z m167 -18 c-3 -8 -6 -5 -6 6 -1 11 2 17 5
13 3 -3 4 -12 1 -19z m48 -8 c-3 -5 -10 -10 -16 -10 -5 0 -9 5 -9 10 0 6 7 10
16 10 8 0 12 -4 9 -10z m-284 -41 c-20 -8 -23 -6 -15 14 4 13 9 14 19 4 11
-10 10 -13 -4 -18z m79 5 c0 -8 -4 -14 -8 -14 -4 0 -8 9 -8 19 0 11 4 17 8 15
4 -3 8 -12 8 -20z m47 6 c-1 -5 7 -15 18 -23 11 -9 17 -19 13 -22 -10 -10 -65
38 -61 52 5 13 34 6 30 -7z m193 16 c0 -2 -8 -10 -17 -17 -16 -13 -17 -12 -4
4 13 16 21 21 21 13z m-70 -26 c0 -5 -9 -6 -20 -3 -11 3 -20 9 -20 13 0 5 9 6
20 3 11 -3 20 -9 20 -13z m90 0 c0 -5 -4 -10 -10 -10 -5 0 -10 5 -10 10 0 6 5
10 10 10 6 0 10 -4 10 -10z m-30 -31 c0 -6 -4 -7 -10 -4 -5 3 -10 11 -10 16 0
6 5 7 10 4 6 -3 10 -11 10 -16z m75 11 c3 -5 1 -10 -4 -10 -6 0 -11 5 -11 10
0 6 2 10 4 10 3 0 8 -4 11 -10z"/>
<path d="M9650 5100 c-8 -5 -10 -10 -5 -10 6 0 17 5 25 10 8 5 11 10 5 10 -5
0 -17 -5 -25 -10z"/>
<path d="M9650 5065 c-33 -19 -21 -19 21 0 19 8 27 14 19 14 -8 0 -26 -6 -40
-14z"/>
<path d="M9430 5035 c-14 -8 -20 -14 -14 -15 5 0 19 7 30 15 24 18 16 19 -16
0z"/>
<path d="M9595 5040 c-3 -6 1 -7 9 -4 18 7 21 14 7 14 -6 0 -13 -4 -16 -10z"/>
<path d="M9990 5040 c-8 -5 -10 -10 -5 -10 6 0 17 5 25 10 8 5 11 10 5 10 -5
0 -17 -5 -25 -10z"/>
<path d="M9920 5010 c-8 -5 -10 -10 -5 -10 6 0 17 5 25 10 8 5 11 10 5 10 -5
0 -17 -5 -25 -10z"/>
<path d="M9860 4980 c-9 -6 -10 -10 -3 -10 6 0 15 5 18 10 8 12 4 12 -15 0z"/>
<path d="M9510 4920 c-8 -5 -10 -10 -5 -10 6 0 17 5 25 10 8 5 11 10 5 10 -5
0 -17 -5 -25 -10z"/>
<path d="M9700 4920 c-8 -5 -10 -10 -5 -10 6 0 17 5 25 10 8 5 11 10 5 10 -5
0 -17 -5 -25 -10z"/>
<path d="M9430 4885 c-14 -8 -20 -14 -15 -14 6 0 21 6 35 14 14 8 21 14 15 14
-5 0 -21 -6 -35 -14z"/>
<path d="M9555 4800 c-3 -6 1 -7 9 -4 18 7 21 14 7 14 -6 0 -13 -4 -16 -10z"/>
<path d="M9490 4770 c-19 -11 -30 -19 -25 -19 6 0 26 8 45 19 19 11 31 19 25
19 -5 0 -26 -8 -45 -19z"/>
<path d="M9680 4770 c-8 -5 -10 -10 -5 -10 6 0 17 5 25 10 8 5 11 10 5 10 -5
0 -17 -5 -25 -10z"/>
<path d="M9630 4745 c-14 -8 -20 -14 -14 -15 5 0 19 7 30 15 24 18 16 19 -16
0z"/>
<path d="M9473 4680 c-34 -14 -28 -21 7 -9 17 6 30 13 30 15 0 6 -12 4 -37 -6z"/>
<path d="M9665 4631 c-77 -33 -135 -62 -135 -66 0 -6 50 13 125 50 73 35 80
47 10 16z"/>
<path d="M9280 4620 c-9 -6 -10 -10 -3 -10 6 0 15 5 18 10 8 12 4 12 -15 0z"/>
<path d="M8995 4330 c-3 -5 -2 -10 4 -10 5 0 13 5 16 10 3 6 2 10 -4 10 -5 0
-13 -4 -16 -10z"/>
<path d="M6375 4260 c-15 -6 -11 -7 17 -7 20 1 35 5 32 9 -6 10 -22 9 -49 -2z"/>
<path d="M7267 3953 c-4 -3 -7 -11 -7 -17 0 -6 5 -5 12 2 6 6 9 14 7 17 -3 3
-9 2 -12 -2z"/>
<path d="M7330 3936 c0 -2 7 -6 15 -10 8 -3 15 -1 15 4 0 6 -7 10 -15 10 -8 0
-15 -2 -15 -4z"/>
<path d="M7410 3881 c13 -26 29 -28 26 -3 -2 9 -11 19 -20 20 -15 3 -16 1 -6
-17z"/>
<path d="M7365 3860 c-3 -6 1 -7 9 -4 18 7 21 14 7 14 -6 0 -13 -4 -16 -10z"/>
<path d="M9422 3856 c13 -15 14 -24 6 -47 -5 -16 -14 -26 -19 -23 -5 3 -6 -2
-2 -12 5 -14 7 -14 17 4 8 16 15 18 28 11 14 -8 16 -7 12 6 -3 8 -11 15 -18
15 -8 0 -8 2 0 8 13 8 15 44 2 36 -5 -3 -17 0 -26 7 -16 12 -16 12 0 -5z"/>
<path d="M9565 3860 c4 -6 11 -8 16 -5 14 9 11 15 -7 15 -8 0 -12 -5 -9 -10z"/>
<path d="M9425 3710 c3 -5 8 -10 11 -10 2 0 4 5 4 10 0 6 -5 10 -11 10 -5 0
-7 -4 -4 -10z"/>
<path d="M9641 3704 c0 -11 3 -14 6 -6 3 7 2 16 -1 19 -3 4 -6 -2 -5 -13z"/>
<path d="M9560 3696 c0 -2 7 -9 15 -16 13 -11 14 -10 9 4 -5 14 -24 23 -24 12z"/>
<path d="M9340 3666 c0 -6 11 -13 26 -14 29 -2 25 13 -6 21 -12 3 -20 0 -20
-7z"/>
<path d="M9765 3670 c-3 -5 -1 -10 4 -10 6 0 11 5 11 10 0 6 -2 10 -4 10 -3 0
-8 -4 -11 -10z"/>
<path d="M9621 3644 c0 -11 3 -14 6 -6 3 7 2 16 -1 19 -3 4 -6 -2 -5 -13z"/>
<path d="M9640 3625 c0 -8 2 -15 4 -15 2 0 6 7 10 15 3 8 1 15 -4 15 -6 0 -10
-7 -10 -15z"/>
<path d="M9484 3618 c-7 -11 21 -38 40 -38 6 0 0 7 -12 16 -12 8 -20 20 -17
25 4 5 4 9 1 9 -3 0 -8 -5 -12 -12z"/>
<path d="M9597 3623 c-12 -12 -7 -19 15 -20 13 -1 18 1 13 5 -6 4 -13 11 -16
15 -3 4 -9 4 -12 0z"/>
<path d="M9685 3620 c3 -5 8 -10 11 -10 2 0 4 5 4 10 0 6 -5 10 -11 10 -5 0
-7 -4 -4 -10z"/>
<path d="M9535 3610 c3 -5 8 -10 11 -10 2 0 4 5 4 10 0 6 -5 10 -11 10 -5 0
-7 -4 -4 -10z"/>
<path d="M9686 3584 c-4 -9 -4 -19 -1 -22 2 -3 7 3 11 12 4 9 4 19 1 22 -2 3
-7 -3 -11 -12z"/>
<path d="M9540 3580 c0 -5 5 -10 10 -10 6 0 10 5 10 10 0 6 -4 10 -10 10 -5 0
-10 -4 -10 -10z"/>
<path d="M9590 3566 c-12 -18 -11 -19 2 -8 13 10 18 9 29 -4 8 -10 13 -20 11
-23 -2 -3 2 -7 10 -9 10 -3 10 -2 -1 6 -8 6 -9 11 -3 13 6 2 1 13 -12 25 l-24
20 -12 -20z"/>
<path d="M9715 3581 c-3 -5 -2 -12 3 -15 5 -3 9 1 9 9 0 17 -3 19 -12 6z"/>
<path d="M9495 3549 c2 -10 -1 -19 -7 -19 -7 0 -4 -6 7 -13 10 -8 15 -19 11
-25 -3 -5 0 -13 6 -15 10 -4 10 -6 1 -6 -16 -1 -17 -41 -1 -41 6 0 9 -2 6 -5
-3 -3 -13 -3 -22 1 -16 6 -22 39 -8 47 4 2 1 2 -5 1 -7 -2 -13 1 -13 5 0 5 6
11 13 14 6 3 -1 4 -18 3 -16 0 -31 3 -32 9 -2 11 -44 28 -51 20 -3 -3 3 -11
13 -19 12 -8 16 -20 12 -35 -3 -11 -1 -21 4 -21 5 0 9 6 9 14 0 9 8 12 25 8
27 -5 35 -22 10 -22 -8 0 -15 -7 -15 -15 0 -8 -8 -15 -18 -15 -10 0 -19 -7
-19 -15 0 -11 4 -12 13 -4 7 6 22 8 34 4 11 -4 20 -2 20 4 0 6 5 11 11 11 5 0
7 -5 3 -12 -4 -6 -3 -8 4 -4 6 3 14 1 18 -6 5 -8 10 -6 14 8 4 10 3 25 -2 32
-8 9 -4 12 16 12 18 0 26 5 26 17 0 9 -3 14 -6 10 -3 -3 -12 -1 -18 6 -10 9
-9 17 2 40 16 32 13 39 -22 42 -19 3 -24 -1 -21 -16z m32 -5 c-3 -3 -12 -4
-19 -1 -8 3 -5 6 6 6 11 1 17 -2 13 -5z m-57 -108 c0 -3 -4 -8 -10 -11 -5 -3
-10 -1 -10 4 0 6 5 11 10 11 6 0 10 -2 10 -4z"/>
<path d="M9691 3533 c7 -10 15 -20 16 -22 2 -2 3 3 3 11 0 9 -7 19 -16 22 -15
6 -15 4 -3 -11z"/>
<path d="M9445 3530 c3 -5 8 -10 11 -10 2 0 4 5 4 10 0 6 -5 10 -11 10 -5 0
-7 -4 -4 -10z"/>
<path d="M9560 3530 c-8 -5 -8 -9 2 -12 16 -6 38 1 38 11 0 10 -26 10 -40 1z"/>
<path d="M9545 3500 c3 -5 10 -10 16 -10 5 0 9 5 9 10 0 6 -7 10 -16 10 -8 0
-12 -4 -9 -10z"/>
<path d="M9305 3490 c3 -5 8 -10 11 -10 2 0 4 5 4 10 0 6 -5 10 -11 10 -5 0
-7 -4 -4 -10z"/>
<path d="M9668 3483 c7 -3 16 -2 19 1 4 3 -2 6 -13 5 -11 0 -14 -3 -6 -6z"/>
<path d="M8745 3450 c-3 -6 1 -7 9 -4 18 7 21 14 7 14 -6 0 -13 -4 -16 -10z"/>
<path d="M9575 3440 c-9 -15 26 -20 40 -6 12 11 10 14 -11 14 -13 0 -27 -4
-29 -8z"/>
<path d="M9660 3420 c0 -5 7 -10 16 -10 8 0 12 5 9 10 -3 6 -10 10 -16 10 -5
0 -9 -4 -9 -10z"/>
<path d="M9390 3371 c0 -5 7 -12 16 -15 14 -5 15 -4 4 9 -14 17 -20 19 -20 6z"/>
<path d="M9490 3370 c0 -5 5 -10 11 -10 5 0 7 5 4 10 -3 6 -8 10 -11 10 -2 0
-4 -4 -4 -10z"/>
<path d="M9219 3353 c-13 -16 -12 -17 4 -4 16 13 21 21 13 21 -2 0 -10 -8 -17
-17z"/>
<path d="M9280 3359 c0 -5 5 -7 10 -4 6 3 10 8 10 11 0 2 -4 4 -10 4 -5 0 -10
-5 -10 -11z"/>
<path d="M9165 3340 c-3 -5 -2 -10 4 -10 5 0 13 5 16 10 3 6 2 10 -4 10 -5 0
-13 -4 -16 -10z"/>
<path d="M9220 3321 c0 -5 9 -7 20 -4 11 3 20 7 20 9 0 2 -9 4 -20 4 -11 0
-20 -4 -20 -9z"/>
<path d="M9145 3300 c3 -5 10 -10 16 -10 5 0 9 5 9 10 0 6 -7 10 -16 10 -8 0
-12 -4 -9 -10z"/>
<path d="M10040 2829 c0 -5 -5 -7 -12 -3 -7 4 -8 3 -4 -5 6 -9 11 -9 22 0 17
14 18 19 4 19 -5 0 -10 -5 -10 -11z"/>
<path d="M10085 2833 c11 -3 27 -11 36 -19 9 -8 19 -11 23 -7 4 4 12 1 17 -7
8 -12 10 -10 6 8 -6 25 3 28 22 10 10 -11 11 -9 5 5 -7 19 -42 20 -57 2 -6 -6
-10 -6 -14 3 -2 6 -17 11 -31 11 -21 -1 -23 -2 -7 -6z"/>
<path d="M10325 2834 c11 -3 31 -7 44 -10 20 -4 22 -7 10 -15 -10 -7 -5 -8 15
-3 23 6 28 4 24 -8 -6 -14 0 -14 87 -8 6 0 4 4 -4 9 -9 6 -10 11 -2 15 5 4 20
-3 32 -15 21 -21 23 -21 36 -4 9 14 13 15 13 4 0 -12 2 -12 10 1 9 13 10 13
10 0 0 -10 3 -11 8 -4 4 7 18 14 32 17 15 3 6 5 -25 7 -53 3 -76 4 -220 14
-49 3 -81 3 -70 0z"/>
<path d="M9971 2826 c2 -2 14 -9 26 -15 19 -10 22 -9 17 4 -4 8 -15 15 -27 15
-11 0 -18 -2 -16 -4z"/>
<path d="M9866 2811 c-3 -4 8 -8 23 -7 16 1 27 4 24 9 -6 10 -41 9 -47 -2z"/>
<path d="M9817 2798 c-3 -9 6 -13 27 -14 17 -1 23 1 13 3 -9 2 -15 9 -12 14 4
5 0 9 -8 9 -8 0 -17 -6 -20 -12z"/>
<path d="M10097 2799 c7 -7 15 -10 18 -7 3 3 -2 9 -12 12 -14 6 -15 5 -6 -5z"/>
<path d="M10680 2807 c0 -2 8 -11 17 -18 11 -10 14 -10 9 -1 -9 14 4 15 58 3
27 -7 35 -6 28 1 -11 11 -112 25 -112 15z"/>
<path d="M4888 2793 c7 -3 16 -2 19 1 4 3 -2 6 -13 5 -11 0 -14 -3 -6 -6z"/>
<path d="M9750 2796 c0 -7 40 -14 44 -7 3 4 -6 8 -20 9 -13 1 -24 0 -24 -2z"/>
<path d="M10905 2790 c-3 -6 1 -7 9 -4 18 7 21 14 7 14 -6 0 -13 -4 -16 -10z"/>
<path d="M3903 2783 c20 -2 54 -2 75 0 20 2 3 4 -38 4 -41 0 -58 -2 -37 -4z"/>
<path d="M4034 2781 c3 -5 15 -7 26 -4 28 7 25 13 -6 13 -14 0 -23 -4 -20 -9z"/>
<path d="M4978 2783 c12 -2 32 -2 45 0 12 2 2 4 -23 4 -25 0 -35 -2 -22 -4z"/>
<path d="M6390 2786 c0 -2 16 -6 35 -8 19 -2 35 0 35 4 0 4 -16 8 -35 8 -19 0
-35 -2 -35 -4z"/>
<path d="M6580 2786 c0 -10 28 -13 41 -5 10 6 7 9 -13 9 -16 0 -28 -2 -28 -4z"/>
<path d="M7095 2780 c-13 -6 13 -7 72 -3 l92 5 -6 -24 c-6 -23 -6 -23 15 -4
29 25 55 6 45 -33 -6 -24 -5 -25 10 -9 9 9 17 21 17 27 0 14 13 14 28 -1 9 -9
12 -7 12 10 0 15 6 22 20 22 13 0 20 -7 20 -20 0 -11 7 -20 15 -20 8 0 15 -5
15 -10 0 -7 -6 -7 -20 0 -16 9 -20 8 -21 -7 -1 -10 -1 -21 0 -25 0 -5 -6 -8
-14 -8 -8 0 -15 -4 -15 -10 0 -5 -7 -7 -15 -4 -8 4 -15 1 -15 -5 0 -6 -5 -11
-10 -11 -7 0 -7 7 0 21 7 11 9 23 6 27 -3 3 -6 0 -6 -7 0 -7 -4 -9 -10 -6 -19
12 -31 -6 -15 -21 16 -17 21 -39 6 -29 -5 3 -19 -7 -31 -22 -23 -30 -29 -31
-40 -13 -5 8 -9 5 -12 -8 -4 -16 -2 -19 10 -15 10 4 13 2 8 -5 -4 -7 -2 -12 3
-12 6 0 11 4 11 10 0 5 7 7 15 3 9 -3 15 -2 13 3 -4 16 13 55 22 49 4 -3 13 2
20 10 15 18 40 8 40 -17 0 -17 2 -18 15 -4 8 8 15 17 15 20 0 3 -7 6 -15 6 -8
0 -15 5 -15 11 0 6 9 9 19 6 15 -4 18 0 16 18 -1 18 4 24 24 28 14 3 34 1 45
-5 16 -9 18 -7 13 6 -9 22 9 21 22 -1 9 -15 12 -16 20 -4 6 10 3 20 -10 34
-10 12 -19 27 -19 34 0 7 -11 13 -25 13 -14 0 -25 -6 -25 -12 0 -9 -2 -10 -8
-2 -9 14 -329 27 -357 14z m247 -22 c-9 -9 -15 -9 -24 0 -9 9 -7 12 12 12 19
0 21 -3 12 -12z m144 -10 c0 -12 -7 -23 -15 -26 -10 -3 -12 0 -8 12 4 10 7 22
7 27 0 5 4 9 9 9 4 0 8 -10 7 -22z"/>
<path d="M9673 2783 c9 -2 25 -2 35 0 9 3 1 5 -18 5 -19 0 -27 -2 -17 -5z"/>
<path d="M9896 2777 c3 -10 9 -15 12 -12 3 3 0 11 -7 18 -10 9 -11 8 -5 -6z"/>
<path d="M10015 2780 c4 -6 11 -8 16 -5 14 9 11 15 -7 15 -8 0 -12 -5 -9 -10z"/>
<path d="M11168 2783 c7 -3 16 -2 19 1 4 3 -2 6 -13 5 -11 0 -14 -3 -6 -6z"/>
<path d="M5080 2767 c13 -7 42 -10 65 -8 35 4 37 5 15 12 -14 4 -43 7 -65 8
-38 1 -39 0 -15 -12z"/>
<path d="M6250 2772 c0 -8 101 -4 109 4 2 2 -21 4 -52 4 -31 0 -57 -4 -57 -8z"/>
<path d="M6660 2776 c0 -2 7 -6 15 -10 8 -3 15 -1 15 4 0 6 -7 10 -15 10 -8 0
-15 -2 -15 -4z"/>
<path d="M6705 2770 c3 -5 8 -10 11 -10 2 0 4 5 4 10 0 6 -5 10 -11 10 -5 0
-7 -4 -4 -10z"/>
<path d="M7045 2770 c4 -6 11 -8 16 -5 14 9 11 15 -7 15 -8 0 -12 -5 -9 -10z"/>
<path d="M7549 2763 c-6 -7 -9 -14 -5 -14 3 -1 11 -3 16 -4 6 -1 15 -3 21 -4
5 0 7 -6 4 -12 -4 -5 0 -18 9 -27 9 -11 12 -23 7 -31 -6 -9 -11 -10 -15 -2 -4
6 -12 11 -17 11 -6 0 -7 -4 -4 -10 3 -5 2 -10 -4 -10 -5 0 -12 6 -14 13 -3 7
-6 5 -6 -5 -1 -9 -9 -22 -18 -27 -10 -6 -13 -11 -7 -11 6 0 14 3 18 8 4 4 12
8 17 8 5 1 12 3 17 4 4 1 21 1 37 0 23 -1 27 1 18 10 -9 9 -9 17 0 31 8 13 8
24 -1 44 -10 21 -10 26 0 22 7 -2 13 -20 13 -40 0 -32 4 -37 28 -43 15 -3 27
-10 27 -15 0 -14 -28 -11 -33 4 -4 9 -8 8 -16 -3 -7 -10 -7 -17 1 -21 5 -4 -3
-6 -18 -6 -15 0 -30 -6 -32 -12 -2 -6 -9 -8 -15 -4 -7 4 -4 -6 7 -21 16 -25
16 -28 2 -23 -13 5 -18 -1 -23 -23 -3 -17 -9 -30 -13 -30 -13 0 -19 27 -9 37
11 11 -8 63 -22 63 -9 0 -1 -28 13 -47 5 -7 4 -13 -4 -15 -10 -4 -10 -10 0
-32 7 -15 9 -32 5 -38 -3 -6 5 -3 19 8 17 13 23 25 20 39 -5 18 -3 18 11 6 9
-7 15 -17 12 -21 -3 -4 3 -11 12 -15 10 -3 19 -1 21 4 5 14 32 14 32 1 0 -5 5
-10 11 -10 5 0 7 5 4 10 -3 6 -1 10 4 10 6 0 11 5 11 10 0 6 -12 10 -27 10
-22 0 -25 2 -13 10 13 9 13 10 0 10 -12 0 -12 2 -2 9 11 6 10 10 -3 15 -15 5
-14 9 6 30 18 19 27 22 37 13 11 -9 17 -7 27 7 8 10 18 15 24 11 7 -3 8 0 5 9
-3 9 -12 16 -20 16 -8 0 -14 5 -14 11 0 6 7 8 16 5 10 -4 18 0 21 13 3 12 11
17 19 14 8 -3 20 0 28 6 7 6 16 8 20 4 4 -4 4 0 1 9 -4 9 -17 18 -30 20 -16 3
-22 1 -18 -8 2 -7 12 -10 21 -7 14 5 15 4 4 -8 -11 -12 -15 -11 -28 5 -22 30
-17 38 17 31 22 -5 29 -4 25 4 -4 6 -30 11 -57 11 -32 0 -48 -4 -44 -10 4 -6
11 -7 17 -4 7 4 8 2 4 -4 -8 -13 -26 -11 -68 6 -36 15 -95 12 -109 -5z m51 1
c0 -8 -19 -13 -24 -6 -3 5 1 9 9 9 8 0 15 -2 15 -3z m140 -26 c0 -5 -4 -7 -9
-4 -5 3 -14 0 -20 -8 -7 -8 -8 -16 -2 -18 5 -1 3 -8 -4 -15 -10 -10 -14 -9
-19 3 -4 10 -2 13 6 8 7 -4 8 -3 4 5 -6 9 -11 9 -21 1 -11 -9 -14 -7 -12 9 0
11 4 18 8 15 4 -2 10 -1 12 3 7 12 57 13 57 1z m-117 -141 c3 -8 2 -19 -3 -26
-5 -10 -9 -8 -14 4 -3 9 -6 21 -6 26 0 14 17 11 23 -4z m2 -57 c3 -6 -1 -7 -9
-4 -18 7 -21 14 -7 14 6 0 13 -4 16 -10z"/>
<path d="M7820 2759 c0 -11 5 -17 10 -14 6 3 10 -1 10 -10 0 -9 -8 -19 -19
-22 -13 -3 -17 -11 -13 -25 5 -20 5 -20 -24 -2 -25 16 -27 16 -16 2 12 -15 12
-20 -2 -33 -18 -19 -21 -35 -6 -35 19 0 10 -42 -12 -61 -13 -10 -17 -18 -10
-19 6 0 12 5 12 10 0 22 15 8 16 -15 1 -14 -2 -23 -6 -20 -5 3 -11 2 -14 -3
-2 -4 4 -9 15 -9 16 -2 19 4 16 33 -3 19 0 34 4 34 5 0 9 -5 9 -11 0 -5 5 -7
12 -3 8 5 6 11 -5 19 -23 17 -21 28 2 16 10 -6 22 -7 26 -3 5 4 5 1 1 -5 -4
-7 -2 -13 3 -13 6 0 11 5 11 11 0 5 5 7 10 4 6 -4 8 -11 5 -16 -4 -5 -1 -9 5
-9 6 0 16 -14 22 -30 8 -25 13 -28 25 -19 10 9 17 9 25 1 9 -9 9 -12 0 -12 -6
0 -11 -11 -10 -25 2 -26 13 -24 13 2 0 9 6 18 14 21 9 3 11 0 6 -8 -6 -9 -4
-11 4 -5 15 9 -13 39 -47 49 -18 6 -20 11 -11 33 11 29 4 42 -13 25 -20 -20
-32 -13 -13 8 12 14 25 18 41 14 18 -5 29 0 44 17 14 17 20 20 20 9 1 -8 3
-23 5 -32 2 -10 -2 -21 -7 -25 -7 -4 -9 2 -6 15 4 12 2 22 -3 22 -5 0 -9 -7
-9 -16 0 -11 -6 -15 -19 -11 -27 7 -32 -14 -8 -38 19 -20 19 -20 12 5 -7 23
-7 24 17 8 20 -14 27 -14 43 -2 10 8 13 14 7 14 -7 0 -12 5 -12 10 0 19 25 5
36 -20 9 -21 11 -22 17 -7 5 13 -1 26 -19 42 l-26 24 35 -4 c21 -3 39 0 46 8
16 19 68 9 74 -14 3 -10 1 -19 -4 -19 -5 0 -9 6 -9 14 0 23 -49 26 -65 4 -9
-13 -18 -17 -27 -12 -7 5 -5 -4 6 -20 13 -21 15 -30 6 -36 -15 -9 16 -23 33
-14 7 3 4 -1 -5 -9 -15 -12 -16 -17 -4 -32 9 -13 15 -15 20 -7 4 7 2 12 -3 12
-6 0 -11 5 -11 10 0 6 7 10 15 10 21 0 19 17 -5 30 -11 6 -20 16 -20 23 0 7 3
8 8 2 16 -22 54 -37 65 -26 8 8 5 11 -11 11 -12 0 -22 5 -22 11 0 5 -4 8 -8 5
-4 -2 -13 4 -20 14 -7 12 -8 21 -2 25 6 3 10 0 10 -8 0 -7 15 -19 34 -27 42
-16 56 -65 22 -74 l-21 -5 22 -22 c12 -13 28 -19 37 -16 18 7 22 27 5 27 -5 0
-7 -4 -4 -10 9 -14 -7 -12 -28 4 -17 13 -16 15 12 21 17 4 29 11 25 16 -3 5
-9 7 -14 4 -15 -9 -18 69 -3 86 12 14 12 18 1 22 -11 4 -11 6 0 6 21 1 53 -19
47 -29 -3 -5 -13 -7 -23 -4 -14 5 -15 4 -2 -5 12 -9 12 -11 -2 -16 -15 -6 -15
-10 0 -51 9 -24 20 -44 25 -44 4 0 5 5 1 12 -5 8 -2 9 9 5 9 -3 19 -2 22 4 4
5 3 8 -2 7 -4 -2 -9 2 -10 7 -1 6 10 11 25 12 15 1 22 -1 15 -5 -9 -6 -7 -13
8 -26 12 -9 23 -15 27 -12 3 3 2 6 -1 6 -4 0 7 13 23 29 17 15 30 34 30 40 0
7 5 9 10 6 13 -8 13 -75 -1 -75 -5 0 -7 -5 -3 -11 9 -15 33 27 34 59 0 12 5
22 10 22 6 0 10 -7 10 -16 0 -9 5 -13 13 -9 6 4 2 -2 -11 -14 -25 -22 -13 -38
17 -22 16 9 19 8 16 -7 -1 -9 -8 -16 -14 -14 -15 3 -14 -13 2 -26 12 -10 40
-2 38 12 -3 22 1 28 19 23 13 -3 20 0 20 9 0 8 -3 13 -7 12 -5 -1 -20 2 -35 6
-18 5 -25 13 -21 22 4 12 8 11 20 -3 13 -16 14 -16 9 -1 -10 33 44 0 57 -34 7
-19 22 -24 31 -9 3 5 -1 11 -9 15 -8 3 -15 11 -15 18 0 10 2 10 9 0 6 -10 10
-10 21 3 10 12 10 18 0 30 -15 18 -6 19 23 3 12 -7 29 -12 37 -13 9 0 14 -8
13 -20 -2 -24 53 -51 72 -35 7 6 17 1 29 -15 23 -31 46 -32 47 -2 l0 22 9 -22
c12 -29 24 -30 15 -2 -5 15 -4 19 5 14 8 -5 9 3 5 29 -5 24 -3 36 4 36 6 0 11
-10 12 -22 l0 -23 11 23 c6 12 18 21 27 20 10 -2 16 4 16 17 0 14 9 22 30 26
17 4 24 8 18 9 -7 1 -17 4 -23 5 -5 1 -14 3 -20 4 -18 2 -11 18 16 36 30 20
34 17 39 -24 3 -21 -1 -34 -13 -40 -9 -6 -15 -11 -12 -11 35 -8 40 -7 40 11 0
10 6 19 13 19 7 0 4 7 -7 15 -17 13 -17 15 -3 15 9 0 21 -8 27 -17 7 -11 10
-12 7 -4 -2 8 -12 19 -23 25 -10 6 -23 17 -27 24 -5 7 -17 10 -28 7 -10 -4
-19 -2 -19 4 0 6 -8 7 -21 3 -24 -9 -25 -29 -1 -24 12 3 13 0 6 -10 -6 -7 -11
-24 -12 -37 -1 -28 -18 -48 -29 -36 -5 4 -2 10 5 12 6 3 12 13 12 23 0 15 -7
18 -40 17 -28 -1 -39 -5 -35 -14 3 -7 8 -19 11 -27 4 -11 0 -13 -18 -9 -13 3
-20 2 -16 -2 4 -4 -1 -20 -12 -35 -11 -15 -17 -30 -13 -34 3 -3 3 -6 0 -6 -4
0 -14 11 -23 25 -14 22 -14 26 0 47 9 13 19 22 21 21 12 -7 35 -2 35 6 0 5 -9
7 -20 4 -12 -3 -22 1 -26 11 -8 21 4 68 16 61 5 -3 7 -13 4 -23 -5 -13 -4 -14
4 -3 6 8 15 10 22 6 9 -6 11 -4 5 5 -6 10 -4 12 8 7 10 -4 17 -2 17 4 0 6 -9
9 -20 6 -12 -3 -24 3 -33 17 -8 11 -30 26 -48 33 l-34 12 28 -20 c15 -11 27
-28 27 -36 0 -14 -3 -14 -20 2 -17 15 -22 16 -37 4 -15 -12 -16 -12 -10 4 3 9
2 17 -3 17 -5 0 -9 10 -7 21 1 12 -4 24 -11 26 -9 3 -12 -3 -11 -18 1 -13 1
-32 1 -43 -2 -15 -5 -16 -17 -6 -13 10 -19 9 -37 -6 -21 -19 -21 -19 -14 11 7
27 6 28 -7 11 -11 -15 -14 -16 -14 -3 0 18 23 30 38 21 5 -3 9 0 9 6 0 6 4 9
9 5 5 -3 12 -1 16 5 3 5 -1 10 -10 10 -9 0 -14 4 -11 9 9 13 -195 22 -516 21
-292 -1 -298 -1 -298 -21z m125 -10 c7 -22 -5 -43 -12 -21 -6 17 -23 15 -23
-3 0 -8 -4 -15 -10 -15 -5 0 -7 -6 -4 -14 3 -8 1 -17 -4 -20 -15 -9 -6 39 13
68 21 31 31 33 40 5z m53 -9 c-8 -12 -16 -16 -21 -11 -6 6 -4 15 4 24 19 20
31 10 17 -13z m66 24 c-16 -7 -5 -44 13 -44 9 0 13 6 10 14 -4 10 -1 13 9 9
18 -7 18 -19 -1 -27 -8 -3 -15 -12 -15 -21 0 -8 -4 -15 -10 -15 -5 0 -7 6 -4
14 3 7 -2 16 -11 20 -9 3 -13 10 -10 16 3 6 -1 13 -9 16 -22 8 -10 24 17 23
12 0 17 -3 11 -5z m162 -20 c-3 -21 -73 -57 -79 -40 -3 6 -10 -2 -17 -17 -8
-15 -19 -26 -26 -23 -7 3 -15 0 -18 -7 -3 -9 -5 -9 -5 0 -1 7 9 17 20 24 17 9
19 13 8 20 -11 7 -11 9 3 9 12 0 15 6 11 23 -5 18 -3 20 7 10 9 -9 19 -9 32
-2 11 6 22 8 26 5 3 -3 0 -6 -6 -6 -7 0 -12 -4 -12 -10 0 -13 33 0 43 17 11
18 16 16 13 -3z m119 -22 c-10 -10 -16 -12 -13 -7 3 6 8 19 13 30 5 14 9 16
12 7 3 -8 -3 -21 -12 -30z m272 32 c-3 -3 -12 -4 -19 -1 -8 3 -5 6 6 6 11 1
17 -2 13 -5z m-205 -26 c-9 -9 -15 -9 -24 1 -11 11 -10 13 5 8 10 -4 17 -2 17
5 0 6 3 8 7 5 4 -4 1 -13 -5 -19z m168 12 c0 -6 -6 -13 -14 -16 -8 -3 -12 -12
-10 -19 3 -7 1 -16 -5 -19 -6 -4 -7 -14 -4 -23 4 -11 3 -14 -5 -9 -16 10 -15
36 1 37 9 0 9 2 0 5 -7 3 -9 13 -6 22 10 27 43 44 43 22z m-715 -40 c0 -17 9
-36 20 -44 19 -14 19 -14 -7 -12 -16 2 -28 -1 -28 -6 0 -5 -5 -6 -10 -3 -13 8
-42 -14 -34 -26 3 -5 -2 -6 -10 -3 -23 9 -14 27 18 39 32 11 45 45 18 45 -15
1 -15 2 1 14 9 7 17 19 17 26 0 27 14 -2 15 -30z m152 8 c-7 -4 -7 -8 -2 -8
16 -1 -27 -30 -44 -30 -14 0 -14 2 -1 10 8 5 11 12 7 16 -3 4 -13 1 -21 -5 -8
-7 -17 -8 -20 -3 -7 11 40 26 54 17 5 -3 12 4 15 16 6 17 9 18 16 8 5 -8 3
-16 -4 -21z m237 20 c-5 -9 -2 -9 9 1 11 9 17 10 17 2 0 -6 5 -11 11 -11 5 0
7 5 4 10 -3 6 -2 10 3 10 5 0 14 -11 20 -25 14 -30 16 -46 3 -27 -12 20 -44
21 -59 3 -11 -14 -12 -14 -6 1 4 13 1 15 -15 11 -23 -6 -28 6 -9 25 16 16 31
15 22 0z m266 8 c0 -3 -4 -8 -10 -11 -5 -3 -10 -1 -10 4 0 6 5 11 10 11 6 0
10 -2 10 -4z m-80 -16 c0 -5 -5 -10 -11 -10 -5 0 -7 5 -4 10 3 6 8 10 11 10 2
0 4 -4 4 -10z m-60 -14 c0 -3 -4 -8 -10 -11 -5 -3 -10 -1 -10 4 0 6 5 11 10
11 6 0 10 -2 10 -4z m131 -14 c-11 -4 -11 -6 0 -13 10 -6 11 -9 2 -9 -7 0 -13
-8 -13 -18 0 -10 -3 -22 -7 -26 -4 -4 -8 -15 -8 -24 0 -13 -9 -17 -38 -17 -21
0 -45 3 -55 8 -13 5 -11 6 6 3 30 -6 30 29 0 45 -14 8 -18 14 -10 17 21 7 13
20 -10 16 -13 -2 -16 -1 -8 2 8 4 18 12 22 17 4 6 12 4 22 -6 18 -17 22 -32 6
-22 -5 3 -10 0 -10 -8 0 -9 9 -12 30 -9 26 4 29 2 23 -14 -4 -11 -8 -13 -11
-6 -6 20 -22 14 -22 -9 0 -11 4 -17 10 -14 6 4 18 1 26 -6 12 -10 13 -9 8 5
-3 9 -2 22 4 29 5 6 10 20 11 30 3 41 5 45 20 39 11 -4 12 -7 2 -10z m-459
-27 c3 -14 1 -25 -3 -25 -5 0 -9 6 -9 14 0 8 -3 22 -7 32 -4 11 -3 15 4 11 6
-4 13 -18 15 -32z m408 25 c0 -5 -5 -10 -11 -10 -5 0 -7 5 -4 10 3 6 8 10 11
10 2 0 4 -4 4 -10z m-511 -37 c12 -10 10 -12 -8 -10 -11 1 -21 4 -21 8 0 4 -3
16 -6 26 -6 16 -5 16 7 3 8 -8 20 -20 28 -27z m271 5 c0 -12 -28 3 -34 18 -4
11 -2 12 14 1 11 -6 20 -15 20 -19z m523 6 c-6 -16 -16 -11 -19 11 -1 8 4 11
11 8 8 -2 11 -11 8 -19z m-439 1 c-7 -18 -20 -19 -30 -3 -4 7 -3 8 4 4 7 -4
12 -2 12 3 0 6 4 11 10 11 5 0 7 -7 4 -15z m382 -1 c-3 -9 -6 -19 -6 -23 0
-13 -29 -8 -34 6 -3 8 -2 12 3 9 5 -3 11 1 15 9 3 8 10 15 17 15 6 0 8 -7 5
-16z m-656 -14 c0 -5 -2 -10 -4 -10 -3 0 -8 5 -11 10 -3 6 -1 10 4 10 6 0 11
-4 11 -10z m570 -4 c0 -8 6 -17 13 -20 6 -3 2 -3 -10 0 -14 3 -23 1 -23 -6 0
-6 -4 -9 -9 -5 -5 3 -12 1 -15 -4 -3 -5 2 -12 11 -15 9 -4 20 -2 23 5 6 8 9 8
14 0 8 -12 5 -13 -35 -15 -31 -2 -38 30 -8 39 10 4 19 13 19 21 0 8 5 14 10
14 6 0 10 -6 10 -14z m-248 -26 c-14 -15 -27 -20 -41 -15 -21 6 -30 35 -11 35
6 0 9 -5 8 -12 -2 -6 5 -14 14 -16 13 -2 16 1 12 11 -3 10 1 17 13 19 26 6 27
2 5 -22z m-487 -9 c-9 -8 -36 -10 -30 -2 2 4 11 8 20 8 8 0 13 -3 10 -6z m840
-1 c4 -6 13 -9 20 -8 8 2 14 -1 14 -7 0 -5 -7 -9 -14 -7 -10 2 -13 -3 -9 -13
3 -8 10 -15 15 -15 5 0 9 -4 9 -10 0 -5 -15 -1 -34 9 -19 11 -37 17 -40 14 -3
-4 -6 1 -6 11 0 13 5 16 20 11 21 -7 28 10 8 18 -10 4 -10 6 -1 6 6 1 15 -4
18 -9z m192 -5 c4 -4 2 -5 -4 -1 -7 4 -13 2 -13 -3 0 -6 -7 -11 -15 -11 -15 0
-20 12 -9 22 7 8 32 4 41 -7z m-617 -24 c0 -5 -7 -12 -16 -15 -14 -5 -15 -4
-4 9 14 17 20 19 20 6z m60 -2 c0 -4 -9 -7 -19 -6 -11 0 -18 4 -16 7 6 9 35 8
35 -1z m27 -14 c-4 -8 -12 -15 -19 -14 -10 0 -10 2 0 6 6 2 12 12 12 21 0 8 3
13 6 9 4 -3 4 -13 1 -22z m480 -19 c-3 -7 0 -19 6 -25 8 -8 7 -11 -5 -11 -19
0 -31 37 -14 44 18 7 18 7 13 -8z m-97 -26 c0 -5 -5 -10 -11 -10 -5 0 -7 5 -4
10 3 6 8 10 11 10 2 0 4 -4 4 -10z m70 -30 c0 -5 -5 -10 -11 -10 -5 0 -7 5 -4
10 3 6 8 10 11 10 2 0 4 -4 4 -10z"/>
<path d="M9620 2770 c0 -7 7 -9 16 -6 12 5 15 2 10 -9 -3 -9 1 -18 10 -22 8
-3 13 -12 10 -19 -3 -8 3 -18 14 -24 24 -13 40 -13 40 0 0 6 -5 10 -11 10 -16
0 -54 43 -54 60 0 8 -8 16 -17 18 -10 2 -18 -2 -18 -8z"/>
<path d="M10095 2770 c-3 -5 -2 -10 4 -10 5 0 13 5 16 10 3 6 2 10 -4 10 -5 0
-13 -4 -16 -10z"/>
<path d="M10175 2760 c-7 -22 -25 -28 -25 -8 0 6 -2 9 -5 7 -2 -3 -2 -15 2
-28 4 -16 8 -19 14 -10 4 8 11 10 15 6 4 -4 -13 -26 -37 -49 -24 -22 -38 -38
-31 -34 6 4 19 0 28 -8 8 -9 21 -16 27 -16 8 0 8 3 2 8 -5 4 -10 18 -10 32 0
25 0 25 68 29 9 1 17 6 17 11 0 6 -11 8 -25 4 -15 -4 -25 -2 -25 4 0 6 -3 18
-7 28 -4 11 -3 15 5 10 7 -4 10 1 9 14 -2 26 -14 26 -22 0z"/>
<path d="M10243 2760 c-6 -23 -19 -26 -26 -7 -3 7 -6 4 -6 -6 -1 -26 30 -18
40 11 5 12 6 22 3 22 -3 0 -8 -9 -11 -20z"/>
<path d="M10320 2765 c0 -8 5 -15 10 -15 6 0 10 7 10 15 0 8 -4 15 -10 15 -5
0 -10 -7 -10 -15z"/>
<path d="M5238 2763 c7 -3 16 -2 19 1 4 3 -2 6 -13 5 -11 0 -14 -3 -6 -6z"/>
<path d="M7140 2760 c0 -5 5 -10 11 -10 5 0 7 5 4 10 -3 6 -8 10 -11 10 -2 0
-4 -4 -4 -10z"/>
<path d="M9508 2763 c7 -3 16 -2 19 1 4 3 -2 6 -13 5 -11 0 -14 -3 -6 -6z"/>
<path d="M9985 2760 c-3 -5 -1 -10 4 -10 6 0 11 5 11 10 0 6 -2 10 -4 10 -3 0
-8 -4 -11 -10z"/>
<path d="M10277 2763 c-11 -11 -8 -21 9 -27 14 -5 15 -4 5 8 -9 11 -9 15 1 19
7 3 8 6 2 6 -6 1 -14 -2 -17 -6z"/>
<path d="M10425 2750 c10 -11 20 -18 23 -16 5 6 -23 36 -34 36 -4 0 1 -9 11
-20z"/>
<path d="M10535 2760 c-4 -6 -10 -8 -14 -6 -4 3 -8 -5 -8 -16 -1 -11 -1 -19 0
-17 1 2 11 14 21 27 11 12 16 22 13 22 -3 0 -9 -5 -12 -10z"/>
<path d="M5328 2753 c7 -3 16 -2 19 1 4 3 -2 6 -13 5 -11 0 -14 -3 -6 -6z"/>
<path d="M5963 2753 c9 -2 23 -2 30 0 6 3 -1 5 -18 5 -16 0 -22 -2 -12 -5z"/>
<path d="M6975 2750 c3 -5 12 -7 20 -3 21 7 19 13 -6 13 -11 0 -18 -4 -14 -10z"/>
<path d="M7070 2751 c0 -6 4 -13 10 -16 6 -3 7 1 4 9 -7 18 -14 21 -14 7z"/>
<path d="M8728 2753 c12 -2 30 -2 40 0 9 3 -1 5 -23 4 -22 0 -30 -2 -17 -4z"/>
<path d="M9400 2756 c0 -2 13 -6 29 -8 17 -2 28 -1 25 4 -5 8 -54 12 -54 4z"/>
<path d="M9709 2747 c-14 -11 -14 -14 -2 -26 8 -7 17 -10 21 -6 3 3 0 10 -8
15 -14 9 -7 14 13 11 5 -1 6 3 2 9 -7 12 -6 12 -26 -3z"/>
<path d="M10382 2736 c-7 -16 -10 -31 -6 -35 4 -3 9 0 11 7 3 6 9 12 14 12 15
0 4 -38 -18 -64 -14 -15 -18 -28 -12 -37 7 -11 9 -10 9 4 0 9 4 17 8 17 13 0
32 47 32 76 0 14 -4 23 -9 19 -5 -3 -11 2 -13 12 -2 13 -6 10 -16 -11z"/>
<path d="M7287 2730 c3 -11 7 -20 9 -20 2 0 4 9 4 20 0 11 -4 20 -9 20 -5 0
-7 -9 -4 -20z"/>
<path d="M8790 2731 c0 -15 5 -18 23 -13 20 5 21 4 7 -14 -14 -17 -14 -18 2
-6 9 8 14 20 11 28 -6 17 13 19 21 2 5 -10 7 -10 12 0 3 6 10 10 15 6 5 -3 9
0 9 5 0 6 -21 11 -50 11 -43 0 -50 -3 -50 -19z"/>
<path d="M10484 2735 c3 -8 2 -14 -2 -12 -4 1 -8 -1 -9 -5 -6 -17 -2 -20 12
-8 17 15 20 40 4 40 -6 0 -9 -7 -5 -15z"/>
<path d="M10576 2735 c4 -8 10 -12 15 -9 11 6 2 24 -11 24 -5 0 -7 -7 -4 -15z"/>
<path d="M4195 2731 c-3 -5 -2 -12 3 -15 5 -3 9 1 9 9 0 17 -3 19 -12 6z"/>
<path d="M7160 2735 c0 -7 30 -13 34 -7 3 4 -4 9 -15 9 -10 1 -19 0 -19 -2z"/>
<path d="M9784 2725 c-3 -8 -3 -19 0 -24 4 -6 -2 -15 -13 -21 -20 -10 -19 -40
1 -40 6 0 8 6 5 14 -4 10 0 12 14 9 24 -7 20 -27 -7 -31 -29 -6 -40 -20 -25
-34 10 -11 11 -10 6 4 -6 15 -2 16 29 11 24 -4 36 -2 36 6 0 7 -4 9 -10 6 -5
-3 -10 -1 -10 4 0 11 11 14 27 9 5 -2 7 -10 5 -18 -2 -12 -1 -12 6 -1 8 11 10
11 14 0 4 -11 9 -10 23 5 19 18 19 18 -2 12 -13 -4 -25 -1 -33 9 -7 8 -19 15
-26 15 -17 0 -18 16 -1 24 6 3 1 3 -13 -1 -23 -5 -24 -5 -10 12 9 11 10 16 3
11 -7 -4 -13 -2 -13 3 0 6 6 11 14 11 8 0 18 5 21 10 3 6 -3 10 -15 10 -11 0
-23 -7 -26 -15z"/>
<path d="M9855 2730 c-3 -6 1 -7 9 -4 9 3 16 1 16 -5 0 -6 4 -11 10 -11 5 0 7
7 4 15 -7 17 -30 20 -39 5z"/>
<path d="M9996 2731 c-4 -6 -1 -11 6 -11 10 0 9 -3 -2 -9 -8 -6 -18 -7 -24 -4
-5 3 -6 1 -2 -5 11 -17 33 -15 40 5 8 19 -8 40 -18 24z"/>
<path d="M4880 2719 c0 -5 5 -7 10 -4 6 3 10 8 10 11 0 2 -4 4 -10 4 -5 0 -10
-5 -10 -11z"/>
<path d="M9009 2728 c-6 -21 -5 -38 1 -38 5 0 8 9 7 20 -1 17 -5 26 -8 18z"/>
<path d="M9740 2725 c-1 -5 -4 -21 -6 -35 l-5 -24 21 21 c21 23 27 38 11 29
-5 -4 -12 0 -14 6 -3 7 -6 9 -7 3z"/>
<path d="M10246 2699 c-8 -42 8 -63 37 -47 41 22 46 32 24 50 -17 15 -37 16
-37 2 0 -3 4 -3 9 0 5 3 15 -2 22 -11 12 -15 12 -16 -4 -10 -10 4 -23 7 -29 7
-6 0 -8 9 -5 20 3 11 2 20 -3 20 -4 0 -10 -14 -14 -31z m44 -34 c0 -2 -7 -5
-15 -9 -9 -3 -15 0 -15 9 0 9 6 12 15 9 8 -4 15 -7 15 -9z"/>
<path d="M7196 2713 c-3 -4 -6 -10 -6 -14 0 -10 28 -20 34 -11 5 9 -20 32 -28
25z"/>
<path d="M7560 2711 c0 -5 5 -13 10 -16 6 -3 10 -2 10 4 0 5 -4 13 -10 16 -5
3 -10 2 -10 -4z"/>
<path d="M9437 2707 c-11 -29 -9 -43 4 -30 6 6 9 19 7 29 -3 18 -4 18 -11 1z"/>
<path d="M9605 2705 c-3 -8 -7 -22 -10 -30 -3 -10 2 -15 18 -14 12 0 16 3 10
6 -7 2 -13 14 -13 25 0 14 5 18 16 14 8 -3 12 -2 9 4 -9 15 -25 12 -30 -5z"/>
<path d="M9945 2710 c-3 -5 -1 -10 4 -10 6 0 11 5 11 10 0 6 -2 10 -4 10 -3 0
-8 -4 -11 -10z"/>
<path d="M10033 2703 c1 -18 4 -20 20 -11 14 7 22 6 31 -3 8 -9 8 -10 -1 -5
-13 7 -43 -19 -43 -39 0 -7 -8 -16 -17 -18 -10 -2 -8 -3 4 -2 12 1 24 -3 26
-8 2 -6 13 -11 25 -12 29 -2 23 19 -6 23 -12 2 -22 10 -22 18 0 9 5 12 12 8 7
-4 8 -3 4 4 -7 11 -2 13 44 16 8 1 15 8 15 16 0 10 -8 14 -25 12 -18 -2 -21 0
-11 7 10 7 7 9 -12 8 -15 -1 -27 -6 -27 -12 0 -5 -5 -3 -10 5 -7 12 -9 10 -7
-7z"/>
<path d="M7073 2695 c0 -8 4 -12 9 -9 4 3 8 9 8 15 0 5 -4 9 -8 9 -5 0 -9 -7
-9 -15z"/>
<path d="M8867 2703 c-4 -3 -7 -11 -7 -17 0 -6 5 -5 12 2 6 6 9 14 7 17 -3 3
-9 2 -12 -2z"/>
<path d="M9366 2702 c-7 -12 -1 -61 9 -70 4 -4 5 -2 2 4 -4 6 0 19 7 30 8 10
12 24 9 31 -6 15 -19 17 -27 5z"/>
<path d="M9468 2679 c3 -21 7 -27 13 -18 4 7 3 21 -2 31 -14 25 -16 23 -11
-13z"/>
<path d="M9560 2699 c0 -5 -6 -7 -12 -3 -9 5 -9 2 1 -9 16 -20 9 -21 -22 -6
-21 10 -21 10 -3 -5 26 -21 57 -21 50 -1 -4 8 -1 15 6 15 6 0 8 5 5 10 -8 13
-25 13 -25 -1z"/>
<path d="M9840 2700 c0 -5 12 -10 28 -9 24 0 25 1 7 9 -27 12 -35 12 -35 0z"/>
<path d="M6836 2683 c-6 -14 -5 -15 5 -6 7 7 10 15 7 18 -3 3 -9 -2 -12 -12z"/>
<path d="M7253 2688 c-13 -6 -23 -17 -23 -25 0 -20 14 -16 38 12 24 27 20 30
-15 13z"/>
<path d="M7460 2681 c0 -12 -5 -21 -10 -21 -6 0 -5 -6 2 -14 7 -8 15 -11 18
-7 3 3 11 6 18 7 28 2 32 5 32 21 0 13 -3 14 -12 5 -17 -17 -41 -15 -35 3 4 8
2 17 -3 20 -6 4 -10 -3 -10 -14z"/>
<path d="M9030 2684 c0 -8 -4 -12 -10 -9 -5 3 -10 1 -10 -4 0 -6 9 -11 20 -11
13 0 20 7 20 20 0 11 -4 20 -10 20 -5 0 -10 -7 -10 -16z"/>
<path d="M9090 2686 c0 -8 7 -16 15 -20 8 -3 15 -1 15 4 0 6 -5 10 -11 10 -5
0 -7 5 -4 10 3 6 1 10 -4 10 -6 0 -11 -6 -11 -14z"/>
<path d="M10630 2689 c0 -5 5 -7 10 -4 6 3 10 8 10 11 0 2 -4 4 -10 4 -5 0
-10 -5 -10 -11z"/>
<path d="M9901 2674 c0 -11 3 -14 6 -6 3 7 2 16 -1 19 -3 4 -6 -2 -5 -13z"/>
<path d="M10450 2678 c0 -4 7 -8 15 -8 8 0 15 4 15 8 0 5 -7 9 -15 9 -8 0 -15
-4 -15 -9z"/>
<path d="M10530 2680 c0 -5 5 -10 11 -10 5 0 7 5 4 10 -3 6 -8 10 -11 10 -2 0
-4 -4 -4 -10z"/>
<path d="M10588 2683 c-24 -6 -23 -19 2 -19 11 0 20 6 20 13 0 7 -1 12 -2 12
-2 -1 -11 -3 -20 -6z"/>
<path d="M7145 2660 c-15 -17 -16 -20 -3 -20 9 0 19 7 22 16 10 25 1 27 -19 4z"/>
<path d="M9203 2660 c6 -11 15 -20 19 -20 12 0 -3 28 -18 34 -11 4 -12 2 -1
-14z"/>
<path d="M9860 2665 c7 -9 15 -13 17 -11 7 7 -7 26 -19 26 -6 0 -6 -6 2 -15z"/>
<path d="M9958 2669 c-10 -5 -18 -15 -18 -20 0 -6 5 -7 10 -4 6 3 13 -1 16 -9
9 -22 17 -20 31 9 6 14 7 25 2 25 -5 0 -9 -4 -9 -10 0 -5 -5 -10 -11 -10 -6 0
-9 7 -5 15 6 17 6 17 -16 4z"/>
<path d="M10170 2671 c0 -6 4 -13 10 -16 6 -3 7 1 4 9 -7 18 -14 21 -14 7z"/>
<path d="M4955 2660 c3 -5 8 -10 11 -10 2 0 4 5 4 10 0 6 -5 10 -11 10 -5 0
-7 -4 -4 -10z"/>
<path d="M9149 2653 c-12 -15 -12 -16 4 -10 15 6 17 3 12 -15 -6 -18 -5 -19 7
-7 15 13 13 49 -2 49 -4 0 -14 -8 -21 -17z"/>
<path d="M10326 2663 c5 -5 12 -12 16 -18 4 -6 8 -2 8 8 0 9 -7 17 -17 17 -9
0 -12 -3 -7 -7z"/>
<path d="M6790 2650 c0 -5 5 -10 11 -10 5 0 7 5 4 10 -3 6 -8 10 -11 10 -2 0
-4 -4 -4 -10z"/>
<path d="M9106 2637 c-39 -24 -55 -41 -49 -50 4 -6 0 -8 -10 -4 -9 3 -19 3
-21 -2 -3 -4 0 -8 7 -8 7 0 19 -2 27 -4 8 -2 15 3 15 11 0 19 18 32 26 19 3
-6 11 3 17 20 6 17 10 31 9 30 -1 0 -11 -6 -21 -12z"/>
<path d="M9550 2639 c0 -6 7 -8 16 -5 9 4 22 2 29 -4 8 -7 12 -5 12 5 0 10
-10 15 -29 15 -15 0 -28 -5 -28 -11z"/>
<path d="M10220 2635 c0 -9 -4 -13 -10 -10 -5 3 -10 1 -10 -4 0 -13 20 -14 36
-3 9 5 8 11 -2 20 -12 11 -14 10 -14 -3z"/>
<path d="M10418 2643 c6 -2 10 -8 8 -12 -3 -4 4 -7 15 -7 19 0 19 1 3 13 -10
7 -23 13 -28 12 -6 0 -5 -3 2 -6z"/>
<path d="M8800 2630 c-13 -8 -12 -10 3 -10 9 0 17 5 17 10 0 12 -1 12 -20 0z"/>
<path d="M9284 2614 c6 -24 5 -26 -18 -22 -27 5 -37 -14 -14 -28 7 -5 8 -3 3
6 -6 10 -1 11 21 6 16 -4 26 -4 22 0 -4 4 -3 14 4 21 9 11 9 16 -1 23 -11 6
-11 9 0 13 9 4 8 6 -5 6 -15 1 -17 -4 -12 -25z"/>
<path d="M9442 2628 c-16 -16 -15 -28 3 -28 9 0 15 -10 16 -22 1 -17 2 -19 6
-5 2 9 10 17 16 17 6 0 1 7 -11 16 -12 8 -20 20 -17 25 8 13 1 11 -13 -3z"/>
<path d="M9727 2622 c-21 -23 -21 -32 -1 -32 8 0 12 5 9 10 -4 6 -1 17 5 25
18 22 6 18 -13 -3z"/>
<path d="M10264 2629 c-3 -6 1 -18 10 -27 15 -15 16 -14 16 11 0 27 -13 36
-26 16z"/>
<path d="M4970 2620 c0 -5 5 -10 11 -10 5 0 7 5 4 10 -3 6 -8 10 -11 10 -2 0
-4 -4 -4 -10z"/>
<path d="M5174 2615 c3 -21 16 -31 16 -12 0 9 -4 18 -9 21 -5 4 -8 -1 -7 -9z"/>
<path d="M6037 2623 c-9 -2 -15 -9 -12 -14 10 -15 32 -10 32 6 0 8 -1 14 -1
14 -1 -1 -9 -3 -19 -6z"/>
<path d="M7166 2615 c-3 -8 -1 -15 4 -15 6 0 10 7 10 15 0 8 -2 15 -4 15 -2 0
-6 -7 -10 -15z"/>
<path d="M7710 2615 c-7 -8 -19 -15 -26 -15 -8 0 -14 -4 -14 -10 0 -12 2 -12
37 0 26 9 27 9 9 -5 -11 -8 -26 -15 -33 -15 -7 0 -13 -4 -13 -9 0 -14 36 -2
59 20 12 12 21 15 21 8 0 -7 3 -10 6 -7 7 8 -14 48 -25 48 -5 0 -14 -7 -21
-15z"/>
<path d="M9650 2615 c0 -8 2 -15 4 -15 2 0 12 -3 21 -7 15 -5 16 -3 6 15 -13
25 -31 29 -31 7z"/>
<path d="M10490 2614 c0 -8 5 -12 10 -9 6 4 8 11 5 16 -9 14 -15 11 -15 -7z"/>
<path d="M10621 2614 c0 -11 3 -14 6 -6 3 7 2 16 -1 19 -3 4 -6 -2 -5 -13z"/>
<path d="M6340 2611 c0 -5 7 -12 16 -15 14 -5 15 -4 4 9 -14 17 -20 19 -20 6z"/>
<path d="M9330 2605 c0 -8 4 -15 8 -15 5 0 9 7 9 15 0 8 -4 15 -9 15 -4 0 -8
-7 -8 -15z"/>
<path d="M9513 2604 c0 -7 4 -11 8 -8 4 2 10 0 14 -6 10 -15 32 -12 39 6 9 22
-3 32 -14 14 -7 -12 -13 -13 -28 -3 -15 9 -19 8 -19 -3z"/>
<path d="M9926 2603 c-6 -14 -5 -15 5 -6 7 7 10 15 7 18 -3 3 -9 -2 -12 -12z"/>
<path d="M10311 2610 c-11 -6 -10 -9 5 -13 17 -4 17 -5 1 -6 -10 0 -15 -5 -12
-11 9 -14 22 -12 28 3 8 20 -6 37 -22 27z"/>
<path d="M5337 2596 c-4 -10 -1 -13 9 -9 15 6 19 23 5 23 -5 0 -11 -7 -14 -14z"/>
<path d="M5395 2601 c-3 -5 -2 -12 3 -15 5 -3 9 1 9 9 0 17 -3 19 -12 6z"/>
<path d="M7405 2600 c-3 -5 -1 -10 4 -10 6 0 11 5 11 10 0 6 -2 10 -4 10 -3 0
-8 -4 -11 -10z"/>
<path d="M7480 2600 c0 -5 5 -10 10 -10 6 0 10 5 10 10 0 6 -4 10 -10 10 -5 0
-10 -4 -10 -10z"/>
<path d="M9122 2590 c-12 -19 -11 -20 8 -8 11 7 20 16 20 20 0 15 -15 8 -28
-12z"/>
<path d="M9955 2600 c-3 -5 -2 -10 4 -10 5 0 13 5 16 10 3 6 2 10 -4 10 -5 0
-13 -4 -16 -10z"/>
<path d="M9167 2594 c-4 -4 -7 -12 -7 -18 0 -6 5 -5 12 2 19 19 24 14 24 -23
0 -19 -4 -35 -9 -35 -5 0 -2 -7 7 -15 17 -17 30 -20 21 -5 -3 6 -1 10 6 10 8
0 8 5 -2 16 -7 9 -13 28 -14 42 0 26 -23 41 -38 26z"/>
<path d="M9381 2578 c7 -13 7 -23 1 -31 -7 -8 -6 -18 4 -31 12 -17 14 -18 14
-3 0 9 -6 17 -12 17 -9 0 -8 3 2 10 8 5 19 5 25 0 6 -5 17 -5 25 1 13 9 13 10
0 6 -16 -4 -53 30 -45 43 2 3 -2 7 -10 7 -11 0 -11 -5 -4 -19z"/>
<path d="M9846 2583 c-6 -14 -5 -15 5 -6 7 7 10 15 7 18 -3 3 -9 -2 -12 -12z"/>
<path d="M6910 2579 c0 -5 5 -7 10 -4 6 3 10 8 10 11 0 2 -4 4 -10 4 -5 0 -10
-5 -10 -11z"/>
<path d="M5008 2573 c6 -2 18 -2 25 0 6 3 1 5 -13 5 -14 0 -19 -2 -12 -5z"/>
<path d="M5890 2570 c0 -5 5 -10 11 -10 5 0 7 5 4 10 -3 6 -8 10 -11 10 -2 0
-4 -4 -4 -10z"/>
<path d="M7340 2570 c20 -13 33 -13 25 0 -3 6 -14 10 -23 10 -15 0 -15 -2 -2
-10z"/>
<path d="M7471 2563 c-19 -20 0 -37 23 -20 15 11 15 15 4 24 -10 8 -17 7 -27
-4z"/>
<path d="M8780 2570 c-12 -8 -10 -10 8 -10 13 0 20 4 17 10 -7 12 -6 12 -25 0z"/>
<path d="M9344 2566 c-8 -22 -2 -27 16 -16 12 7 12 12 3 21 -10 10 -14 9 -19
-5z"/>
<path d="M9500 2571 c0 -10 19 -25 25 -20 1 2 -3 10 -11 17 -8 7 -14 8 -14 3z"/>
<path d="M5130 2557 c0 -10 8 -17 18 -17 9 0 13 4 7 8 -5 4 -13 11 -17 16 -5
5 -8 2 -8 -7z"/>
<path d="M8941 2552 c-6 -12 -18 -22 -26 -22 -8 0 -15 -5 -15 -11 0 -5 5 -7
11 -4 6 4 17 -1 24 -11 14 -18 14 -18 10 2 -3 19 1 22 36 22 21 1 39 -3 39 -9
0 -5 10 -9 23 -8 17 0 14 4 -15 17 -40 18 -51 34 -18 25 11 -3 20 -3 20 0 0 2
-9 7 -21 10 -14 4 -23 -1 -29 -16 -8 -22 -8 -22 -18 3 l-9 24 -12 -22z"/>
<path d="M9086 2553 c-6 -14 -5 -15 5 -6 7 7 10 15 7 18 -3 3 -9 -2 -12 -12z"/>
<path d="M9726 2561 c9 -9 34 -9 34 -1 0 5 -9 8 -20 7 -10 -1 -17 -3 -14 -6z"/>
<path d="M4925 2549 c-4 -6 -4 -13 -1 -16 3 -4 6 0 7 8 0 8 4 6 9 -6 8 -19 9
-19 9 3 1 23 -13 30 -24 11z"/>
<path d="M5816 2551 c-4 -5 -2 -12 3 -15 5 -4 12 -2 15 3 4 5 2 12 -3 15 -5 4
-12 2 -15 -3z"/>
<path d="M7080 2550 c0 -5 5 -10 11 -10 5 0 7 5 4 10 -3 6 -8 10 -11 10 -2 0
-4 -4 -4 -10z"/>
<path d="M8010 2549 c0 -5 5 -7 10 -4 6 3 10 8 10 11 0 2 -4 4 -10 4 -5 0 -10
-5 -10 -11z"/>
<path d="M9270 2555 c0 -3 9 -14 20 -25 13 -13 20 -15 20 -7 0 7 -5 18 -12 25
-12 12 -28 16 -28 7z"/>
<path d="M10108 2553 c7 -3 16 -2 19 1 4 3 -2 6 -13 5 -11 0 -14 -3 -6 -6z"/>
<path d="M5105 2540 c3 -5 8 -10 11 -10 2 0 4 5 4 10 0 6 -5 10 -11 10 -5 0
-7 -4 -4 -10z"/>
<path d="M9125 2529 c5 -15 4 -19 -4 -15 -6 4 -11 5 -11 2 0 -3 9 -10 19 -16
20 -10 24 2 8 27 -4 6 -1 14 5 16 8 3 5 6 -5 6 -14 1 -17 -4 -12 -20z"/>
<path d="M4795 2531 c-6 -11 13 -26 22 -17 4 3 1 6 -6 6 -7 0 -9 5 -6 10 3 6
4 10 1 10 -3 0 -7 -4 -11 -9z"/>
<path d="M7040 2530 c8 -5 20 -10 25 -10 6 0 3 5 -5 10 -8 5 -19 10 -25 10 -5
0 -3 -5 5 -10z"/>
<path d="M7790 2531 c0 -13 29 -35 37 -27 3 3 1 6 -5 6 -6 0 -9 7 -6 15 4 9 0
15 -10 15 -9 0 -16 -4 -16 -9z"/>
<path d="M7970 2525 c0 -8 2 -15 4 -15 2 0 12 -3 21 -6 10 -4 15 -2 13 7 -6
27 -38 39 -38 14z"/>
<path d="M8620 2530 c-18 -11 -7 -23 24 -25 15 0 26 6 29 16 2 9 -2 16 -9 16
-8 0 -14 -4 -14 -9 0 -4 -5 -8 -11 -8 -5 0 -7 5 -4 10 8 12 4 12 -15 0z"/>
<path d="M9540 2530 c0 -5 5 -10 10 -10 6 0 10 5 10 10 0 6 -4 10 -10 10 -5 0
-10 -4 -10 -10z"/>
<path d="M7300 2516 c0 -8 4 -17 9 -20 5 -4 7 3 4 14 -6 23 -13 26 -13 6z"/>
<path d="M7480 2520 c0 -5 5 -10 11 -10 5 0 7 5 4 10 -3 6 -8 10 -11 10 -2 0
-4 -4 -4 -10z"/>
<path d="M8026 2517 c3 -10 9 -15 12 -12 3 3 0 11 -7 18 -10 9 -11 8 -5 -6z"/>
<path d="M9255 2520 c3 -5 8 -10 11 -10 2 0 4 5 4 10 0 6 -5 10 -11 10 -5 0
-7 -4 -4 -10z"/>
<path d="M7240 2511 c0 -5 7 -12 16 -15 14 -5 15 -4 4 9 -14 17 -20 19 -20 6z"/>
<path d="M7116 2493 c-6 -14 -5 -15 5 -6 7 7 10 15 7 18 -3 3 -9 -2 -12 -12z"/>
<path d="M8350 2500 c0 -5 4 -10 9 -10 6 0 13 5 16 10 3 6 -1 10 -9 10 -9 0
-16 -4 -16 -10z"/>
<path d="M7371 2484 c0 -11 3 -14 6 -6 3 7 2 16 -1 19 -3 4 -6 -2 -5 -13z"/>
<path d="M7570 2480 c0 -11 2 -20 4 -20 2 0 6 9 9 20 3 11 1 20 -4 20 -5 0 -9
-9 -9 -20z"/>
<path d="M8635 2490 c3 -6 3 -20 -1 -33 -8 -21 -8 -21 -16 8 -6 27 -7 26 -3
-7 2 -21 0 -38 -6 -38 -5 0 -9 5 -9 10 0 19 -16 10 -17 -10 -2 -26 22 -26 40
0 8 11 20 19 28 17 8 -2 11 -2 7 0 -5 3 -8 18 -8 34 0 16 -5 29 -11 29 -5 0
-7 -5 -4 -10z"/>
<path d="M8675 2490 c-13 -6 -15 -9 -5 -9 8 0 22 4 30 9 18 12 2 12 -25 0z"/>
<path d="M9060 2490 c20 -13 33 -13 25 0 -3 6 -14 10 -23 10 -15 0 -15 -2 -2
-10z"/>
<path d="M7030 2480 c0 -5 5 -10 11 -10 5 0 7 5 4 10 -3 6 -8 10 -11 10 -2 0
-4 -4 -4 -10z"/>
<path d="M9260 2475 c0 -8 -4 -15 -9 -15 -5 0 -12 -8 -15 -17 -6 -16 -6 -16
12 0 10 9 21 14 25 11 3 -3 3 3 0 15 -6 24 -13 28 -13 6z"/>
<path d="M9598 2483 c7 -3 16 -2 19 1 4 3 -2 6 -13 5 -11 0 -14 -3 -6 -6z"/>
<path d="M7655 2470 c-3 -5 -1 -10 4 -10 6 0 11 5 11 10 0 6 -2 10 -4 10 -3 0
-8 -4 -11 -10z"/>
<path d="M7739 2463 c-13 -17 -13 -17 6 -3 11 8 22 16 24 17 2 2 0 3 -6 3 -6
0 -17 -8 -24 -17z"/>
<path d="M7847 2467 c-3 -8 -1 -20 4 -28 7 -11 9 -9 9 8 0 12 8 24 18 26 13 4
12 5 -4 6 -12 0 -24 -5 -27 -12z"/>
<path d="M7896 2463 c-6 -14 -5 -15 5 -6 7 7 10 15 7 18 -3 3 -9 -2 -12 -12z"/>
<path d="M8310 2460 c0 -13 7 -20 20 -20 11 0 20 1 20 3 0 1 -9 10 -20 20 -19
16 -20 16 -20 -3z"/>
<path d="M8426 2463 c-6 -14 -5 -15 5 -6 7 7 10 15 7 18 -3 3 -9 -2 -12 -12z"/>
<path d="M8566 2458 c-8 -12 -12 -26 -8 -32 4 -6 8 -1 10 12 2 12 7 20 12 17
4 -3 10 2 14 10 8 23 -11 18 -28 -7z"/>
<path d="M8696 2463 c-6 -14 -5 -15 5 -6 7 7 10 15 7 18 -3 3 -9 -2 -12 -12z"/>
<path d="M8948 2456 c-17 -23 -16 -23 8 -23 18 0 22 3 14 11 -6 9 -6 16 2 24
7 7 8 12 3 12 -6 0 -18 -11 -27 -24z"/>
<path d="M9005 2452 c-13 -19 -14 -23 -3 -14 9 7 18 9 20 5 3 -4 3 -2 1 6 -2
9 2 11 13 7 10 -4 14 -1 12 6 -7 21 -23 18 -43 -10z"/>
<path d="M9110 2476 c0 -2 8 -10 18 -17 15 -13 16 -12 3 4 -13 16 -21 21 -21
13z"/>
<path d="M8280 2455 c0 -8 4 -15 8 -15 5 0 9 7 9 15 0 8 -4 15 -9 15 -4 0 -8
-7 -8 -15z"/>
<path d="M8770 2461 c0 -6 4 -13 10 -16 6 -3 7 1 4 9 -7 18 -14 21 -14 7z"/>
<path d="M8900 2460 c0 -5 5 -10 10 -10 6 0 10 5 10 10 0 6 -4 10 -10 10 -5 0
-10 -4 -10 -10z"/>
<path d="M8736 2445 c-24 -18 -31 -46 -9 -38 11 4 12 8 3 13 -9 5 -6 10 9 15
11 3 21 11 21 16 0 12 -1 11 -24 -6z"/>
<path d="M8086 2435 c-7 -18 5 -20 23 -2 11 10 14 10 18 0 3 -7 9 -13 14 -13
4 0 6 7 3 15 -4 8 -16 15 -29 15 -13 0 -25 -7 -29 -15z"/>
<path d="M8807 2443 c-4 -3 -7 -11 -7 -16 0 -6 3 -7 6 -4 4 3 15 2 25 -4 16
-8 19 -6 19 13 0 19 -2 20 -10 8 -6 -10 -10 -11 -10 -2 0 13 -13 16 -23 5z"/>
<path d="M9178 2443 c7 -3 16 -2 19 1 4 3 -2 6 -13 5 -11 0 -14 -3 -6 -6z"/>
<path d="M9320 2440 c-8 -5 -10 -10 -5 -10 6 0 17 5 25 10 8 5 11 10 5 10 -5
0 -17 -5 -25 -10z"/>
<path d="M8190 2430 c0 -5 5 -12 10 -15 6 -4 4 -12 -5 -22 -9 -8 -13 -18 -10
-22 4 -3 11 2 16 12 6 9 15 17 20 17 6 0 7 -5 3 -12 -4 -7 -3 -8 4 -4 9 5 8
12 0 26 -14 22 -38 35 -38 20z"/>
<path d="M8412 2426 c2 -11 10 -20 18 -22 8 -1 23 -5 33 -9 10 -4 17 -3 17 5
0 6 -4 9 -9 5 -5 -3 -17 2 -25 11 -9 8 -16 12 -16 7 0 -4 -5 -1 -11 7 -8 13
-10 12 -7 -4z"/>
<path d="M8450 2430 c0 -5 5 -10 11 -10 5 0 7 5 4 10 -3 6 -8 10 -11 10 -2 0
-4 -4 -4 -10z"/>
<path d="M9271 2422 c-7 -14 -6 -19 4 -19 8 0 11 5 8 10 -3 5 1 13 8 18 10 6
10 9 2 9 -7 0 -17 -8 -22 -18z"/>
<path d="M8308 2405 c-9 -16 -8 -18 3 -8 10 10 16 10 30 -3 11 -10 19 -12 24
-5 3 6 2 11 -4 11 -6 0 -8 6 -5 13 8 22 -37 15 -48 -8z"/>
<path d="M8877 2417 c-3 -8 1 -14 8 -14 7 0 11 6 8 14 -3 7 -6 13 -8 13 -2 0
-5 -6 -8 -13z"/>
<path d="M8908 2417 c7 -8 8 -18 4 -22 -4 -5 -1 -5 6 -1 17 10 15 23 -4 30
-13 5 -14 4 -6 -7z"/>
<path d="M7328 2413 c7 -3 16 -2 19 1 4 3 -2 6 -13 5 -11 0 -14 -3 -6 -6z"/>
<path d="M7736 2407 c3 -10 9 -15 12 -12 3 3 0 11 -7 18 -10 9 -11 8 -5 -6z"/>
<path d="M7997 2413 c-10 -9 -9 -23 2 -23 5 0 11 7 15 15 5 15 -5 20 -17 8z"/>
<path d="M8490 2408 c0 -21 30 -32 44 -17 8 9 7 10 -3 4 -9 -5 -19 -1 -28 10
-11 16 -13 16 -13 3z"/>
<path d="M8637 2406 c-4 -10 -1 -13 8 -9 8 3 12 9 9 14 -7 12 -11 11 -17 -5z"/>
<path d="M8745 2390 c-4 -17 -5 -34 -2 -36 3 -3 8 9 12 26 4 17 5 34 2 36 -3
3 -8 -9 -12 -26z"/>
<path d="M9050 2411 c0 -7 -5 -9 -12 -5 -10 6 -9 3 0 -8 8 -9 20 -14 29 -11 8
3 11 9 6 12 -4 3 -11 10 -15 15 -5 5 -8 4 -8 -3z"/>
<path d="M8940 2406 c0 -2 7 -6 15 -10 8 -3 15 -1 15 4 0 6 -7 10 -15 10 -8 0
-15 -2 -15 -4z"/>
<path d="M8020 2396 c0 -2 8 -10 18 -17 15 -13 16 -12 3 4 -13 16 -21 21 -21
13z"/>
<path d="M8676 2391 c-3 -5 1 -11 9 -14 9 -4 12 -1 8 9 -6 16 -10 17 -17 5z"/>
<path d="M8837 2393 c-10 -9 -9 -23 1 -23 5 0 9 7 9 15 0 17 -1 18 -10 8z"/>
<path d="M9160 2390 c-9 -6 -10 -10 -3 -10 6 0 15 5 18 10 8 12 4 12 -15 0z"/>
<path d="M8414 2378 c-5 -7 -2 -9 9 -5 9 3 18 1 21 -6 2 -7 5 -4 5 6 1 19 -24
23 -35 5z"/>
<path d="M8600 2376 c0 -2 7 -9 15 -16 13 -11 14 -10 9 4 -5 14 -24 23 -24 12z"/>
<path d="M7830 2360 c0 -6 7 -10 15 -10 8 0 15 2 15 4 0 2 -7 6 -15 10 -8 3
-15 1 -15 -4z"/>
<path d="M8408 2343 c7 -3 16 -2 19 1 4 3 -2 6 -13 5 -11 0 -14 -3 -6 -6z"/>
<path d="M8566 2342 c-3 -5 1 -9 9 -9 8 0 12 4 9 9 -3 4 -7 8 -9 8 -2 0 -6 -4
-9 -8z"/>
<path d="M8960 2340 c0 -5 5 -10 10 -10 6 0 10 5 10 10 0 6 -4 10 -10 10 -5 0
-10 -4 -10 -10z"/>
<path d="M9025 2340 c-3 -5 -1 -10 4 -10 6 0 11 5 11 10 0 6 -2 10 -4 10 -3 0
-8 -4 -11 -10z"/>
<path d="M8500 2336 c0 -2 7 -6 15 -10 8 -3 15 -1 15 4 0 6 -7 10 -15 10 -8 0
-15 -2 -15 -4z"/>
<path d="M9151 2314 c0 -11 3 -14 6 -6 3 7 2 16 -1 19 -3 4 -6 -2 -5 -13z"/>
<path d="M8590 2240 c-9 -6 -10 -10 -3 -10 6 0 15 5 18 10 8 12 4 12 -15 0z"/>
</g>
</svg>
