<svg version="1.1" id="Layer_1" xmlns="http://www.w3.org/2000/svg" xmlns:xlink="http://www.w3.org/1999/xlink" x="0px" y="0px"
	 width="100%" viewBox="0 0 500 162" enable-background="new 0 0 500 162" xml:space="preserve">
<path fill="#FEFEFE" opacity="1.000000" stroke="none" 
	d="
M325.000000,163.000000 
	C216.666702,163.000000 108.833412,163.000000 1.000087,163.000000 
	C1.000058,109.000061 1.000058,55.000114 1.000029,1.000130 
	C167.666550,1.000087 334.333099,1.000087 500.999725,1.000043 
	C500.999817,54.999863 500.999817,108.999725 500.999908,162.999786 
	C442.500000,163.000000 384.000000,163.000000 325.000000,163.000000 
M251.251053,88.827599 
	C249.807358,86.216431 248.065460,83.722183 246.985672,80.968315 
	C245.082214,76.113846 241.814987,75.140762 237.257309,76.639870 
	C237.257309,84.151405 237.257309,91.527786 237.257309,98.799759 
	C239.218445,98.799759 240.831543,98.799759 242.892471,98.799759 
	C242.892471,94.572563 242.892471,90.540634 242.892471,86.508705 
	C245.159973,88.795631 246.906601,91.184242 247.934418,93.849998 
	C249.957825,99.097931 253.502945,100.127922 258.513458,98.493454 
	C258.513458,91.149475 258.513458,83.909050 258.513458,76.419930 
	C256.544373,76.419930 254.824554,76.419930 252.471893,76.419930 
	C252.471893,80.641251 252.471893,84.597595 252.171616,88.831474 
	C252.171616,88.831474 251.883713,89.121811 251.251053,88.827599 
M112.905006,24.910145 
	C112.721581,24.721994 112.538147,24.533842 112.976418,23.956339 
	C115.475128,23.057283 117.966362,21.417206 120.473900,21.391870 
	C129.644516,21.299223 131.453232,13.393663 135.840775,8.732049 
	C122.452133,8.732049 109.319496,8.631732 96.192436,8.856655 
	C94.516533,8.885369 92.566254,10.304140 91.259422,11.599756 
	C83.687881,19.106358 76.266907,26.764957 68.805679,34.382607 
	C67.382011,35.836121 66.006195,37.336510 63.944988,39.516941 
	C67.380280,39.854790 69.623886,40.075439 72.356468,40.344177 
	C71.832939,47.480595 71.327667,54.368160 70.851585,60.857819 
	C73.012726,60.857819 74.657288,60.857819 76.565765,60.857819 
	C76.024063,53.887966 75.472801,46.795170 74.966942,40.286461 
	C83.099518,39.047462 83.842445,45.767864 86.425827,51.045643 
	C96.930069,35.701614 111.289124,29.121220 129.572830,31.260551 
	C127.482719,23.406483 126.977432,23.029774 119.786621,24.165392 
	C117.652420,24.502438 115.550797,25.045652 112.905006,24.910145 
M89.513306,92.894295 
	C91.910149,95.859589 93.978882,99.185448 96.766129,101.721718 
	C104.730988,108.969398 114.267258,112.300110 125.070534,111.991913 
	C128.762207,111.886597 132.459427,111.975189 136.154099,111.975189 
	C136.332520,112.714081 136.510941,113.452972 136.689346,114.191864 
	C135.220917,114.790504 133.765900,115.864182 132.281754,115.906075 
	C125.622864,116.094055 118.954971,115.928093 112.291695,116.006119 
	C105.695526,116.083366 101.484741,119.791359 101.564232,125.278076 
	C101.645966,130.920029 105.568604,134.403687 112.292664,134.525482 
	C118.954712,134.646164 125.623802,134.449341 132.281921,134.651459 
	C133.569992,134.690582 134.821701,135.927780 136.090179,136.612305 
	C134.871994,137.122726 133.681152,137.984467 132.430847,138.081726 
	C127.471794,138.467468 122.407166,138.124725 117.548080,138.988297 
	C112.762985,139.838715 110.264374,144.462021 111.011848,149.235489 
	C111.737053,153.866638 115.129326,156.883942 119.933586,156.992386 
	C123.930061,157.082596 127.931679,156.945084 131.928177,157.034744 
	C134.515030,157.092773 136.802307,156.704239 136.897064,153.569580 
	C137.003830,150.037216 134.428406,149.772690 131.730072,149.810303 
	C128.731781,149.852142 125.705223,150.056244 122.744934,149.717758 
	C121.242676,149.545990 119.859077,148.336441 118.421837,147.596024 
	C119.783867,147.015656 121.119026,146.025970 122.513153,145.934464 
	C126.162956,145.694885 129.843536,145.966949 133.502472,145.812561 
	C137.753220,145.633194 141.304245,144.049927 143.057358,139.842453 
	C145.759445,133.357498 141.007553,127.142044 133.128464,127.017006 
	C125.177040,126.890823 117.222038,126.989212 109.268608,126.989212 
	C109.072433,126.357101 108.876266,125.724991 108.680099,125.092880 
	C110.168999,124.456139 111.643585,123.311554 113.149239,123.269104 
	C120.307671,123.067299 127.476410,123.262039 134.637833,123.124832 
	C139.859375,123.024788 144.053238,118.978363 143.875122,113.983292 
	C143.790710,111.616180 142.665985,109.286171 141.997513,106.885292 
	C144.162827,105.214546 146.467117,103.599388 148.589828,101.773148 
	C167.316986,85.661446 164.903549,53.184811 144.061661,40.455750 
	C128.074890,30.691925 109.069679,32.355793 96.105446,44.654213 
	C83.010193,57.076923 80.305412,75.546280 89.513306,92.894295 
M346.775085,48.858868 
	C347.015900,54.074780 350.510315,53.202042 353.915527,52.742069 
	C355.063477,48.717197 356.188629,44.772247 357.313751,40.827293 
	C357.607422,40.883076 357.901093,40.938862 358.194763,40.994644 
	C358.194763,44.932568 358.194763,48.870487 358.194763,53.058147 
	C360.293610,52.951664 362.020569,52.864048 363.959778,52.765659 
	C363.959778,48.682449 363.959808,45.039516 363.959808,41.396587 
	C363.959808,37.784695 363.959778,34.172798 363.959778,30.655617 
	C354.940582,29.479221 354.940277,29.479151 353.177185,37.256348 
	C352.632690,39.658298 352.090210,42.060711 351.546814,44.462910 
	C351.185181,44.396290 350.823517,44.329674 350.461884,44.263054 
	C349.329956,39.640476 348.198029,35.017899 347.061462,30.376324 
	C343.974243,30.376324 341.211365,30.376324 338.198059,30.376324 
	C338.198059,37.979984 338.198059,45.361229 338.198059,53.042076 
	C340.214661,52.946503 341.939331,52.864769 343.972900,52.768391 
	C343.972900,48.780495 343.972900,45.228676 343.972900,41.676853 
	C344.210266,41.637077 344.447601,41.597298 344.684967,41.557518 
	C345.293396,43.733952 345.901825,45.910385 346.775085,48.858868 
M202.959686,93.554703 
	C202.959686,95.320053 202.959686,97.085411 202.959686,99.088463 
	C205.336349,98.957771 207.064438,98.862747 208.656311,98.775215 
	C208.656311,91.019699 208.656311,83.775093 208.656311,76.574883 
	C199.921082,75.547005 199.921143,75.547020 198.166199,83.304916 
	C197.625748,85.693939 197.084854,88.082863 196.544174,90.471832 
	C196.180557,90.397942 195.816925,90.324059 195.453293,90.250168 
	C194.321869,85.620834 193.190445,80.991493 192.065277,76.387718 
	C188.951233,76.387718 186.187134,76.387718 183.204315,76.387718 
	C183.204315,84.001030 183.204315,91.379890 183.204315,99.046700 
	C185.232208,98.947433 186.956146,98.863052 188.980713,98.763947 
	C188.980713,94.771149 188.980713,91.223320 188.980713,87.675491 
	C189.214233,87.639839 189.447754,87.604187 189.681274,87.568542 
	C190.746826,91.318626 191.812378,95.068710 192.894272,98.876320 
	C194.951828,98.876320 196.755081,98.876320 198.851089,98.876320 
	C200.008575,94.821739 201.163239,90.777077 202.317886,86.732414 
	C202.531815,86.770813 202.745728,86.809219 202.959656,86.847618 
	C202.959656,88.781418 202.959656,90.715218 202.959686,93.554703 
M208.319946,32.183117 
	C206.665436,31.286333 205.010910,30.389549 202.684799,29.128740 
	C202.358978,33.496059 202.142853,36.392830 201.935944,39.166321 
	C198.900696,39.166321 196.307678,39.166321 193.519745,39.166321 
	C193.356232,36.047745 193.210617,33.270775 193.046219,30.135408 
	C191.042908,30.224970 189.319992,30.301994 187.526489,30.382174 
	C187.526489,38.154453 187.526489,45.420700 187.526489,52.744106 
	C189.534576,52.744106 191.278793,52.744106 193.401001,52.744106 
	C193.401001,49.840984 193.401001,47.218136 193.401001,44.469879 
	C196.520370,44.469879 199.254318,44.469879 202.080811,44.469879 
	C202.234070,47.418629 202.370316,50.040073 202.512100,52.768269 
	C204.544815,52.768269 206.290634,52.768269 208.330200,52.768269 
	C208.330200,46.029747 208.330200,39.546062 208.319946,32.183117 
M293.753418,30.143766 
	C291.940094,30.298725 289.569916,29.329378 289.627014,32.735821 
	C289.738281,39.373440 289.659637,46.014244 289.659637,52.757294 
	C291.764801,52.757294 293.515106,52.757294 295.498077,52.757294 
	C295.632446,49.914703 295.754944,47.322731 295.878876,44.700905 
	C302.896393,43.712112 300.702423,49.900616 302.892883,52.800804 
	C304.701965,52.800804 306.640717,52.800804 308.875977,52.800804 
	C307.700317,49.059788 306.595642,45.544586 305.946320,43.478416 
	C306.804047,39.707664 308.622650,36.451885 307.691254,34.526295 
	C306.680603,32.436867 303.230804,31.246929 300.613373,30.312513 
	C298.837189,29.678410 296.662445,30.160748 293.753418,30.143766 
M313.654297,96.026848 
	C313.478607,101.143448 317.083252,98.299271 319.383453,99.018867 
	C319.585693,96.068748 319.763794,93.471230 319.949768,90.758278 
	C327.111938,89.535439 324.504028,96.359756 326.862396,98.705963 
	C328.885101,98.705963 330.761932,98.705963 332.865448,98.705963 
	C331.691345,94.949005 330.629791,91.552223 330.037598,89.657295 
	C330.807098,85.712776 332.548920,82.335785 331.566742,80.228149 
	C330.619934,78.196335 326.981201,76.862358 324.305573,76.334366 
	C321.000549,75.682175 317.468903,76.178383 313.653748,76.178383 
	C313.653748,82.849220 313.653748,88.982132 313.654297,96.026848 
M228.794540,53.011002 
	C230.199142,52.934090 231.603745,52.857178 233.316055,52.763416 
	C232.145752,48.932060 231.112396,45.548988 230.520142,43.610058 
	C231.293365,39.734703 233.132675,36.215847 232.070755,34.334801 
	C230.858643,32.187672 227.184006,30.929050 224.357697,30.328957 
	C221.221085,29.662983 217.834015,30.176577 214.354980,30.176577 
	C214.354980,38.028347 214.354980,45.390736 214.354980,52.688103 
	C216.381912,52.688103 218.108948,52.688103 220.255356,52.688103 
	C220.255356,49.797073 220.255356,47.231899 220.255356,44.714394 
	C224.041656,43.895180 225.537521,45.444550 226.099899,48.656311 
	C226.362289,50.154961 227.302628,51.534904 228.794540,53.011002 
M301.937408,98.672073 
	C303.053528,97.968552 304.303619,97.411659 305.262207,96.535744 
	C309.135437,92.996635 309.979462,86.342827 307.299377,81.369820 
	C304.839417,76.805244 299.135986,74.689125 293.470978,76.239113 
	C288.534027,77.589905 285.577515,81.814568 285.554718,87.550987 
	C285.520203,96.237289 291.166382,100.333702 301.937408,98.672073 
M225.433395,94.261719 
	C222.735962,94.224327 219.354050,94.836884 221.473999,89.790619 
	C224.644119,89.790619 227.747330,89.790619 230.897430,89.790619 
	C230.969269,88.770760 231.110565,88.105659 231.036636,87.465416 
	C230.950104,86.716133 230.676071,85.988510 230.509460,85.351257 
	C220.813293,84.856964 220.813293,84.856964 221.437302,80.792221 
	C224.777298,80.792221 228.194580,80.792221 231.611877,80.792221 
	C231.906296,80.381218 232.200729,79.970207 232.495148,79.559204 
	C231.448257,78.420746 230.471085,76.387589 229.342331,76.299637 
	C224.606232,75.930611 219.824768,76.143845 214.990356,76.143845 
	C214.990356,84.061424 214.990356,91.433075 214.990356,98.826126 
	C220.784393,98.826126 226.230148,98.826126 232.038330,98.826126 
	C231.922684,97.240189 231.823837,95.884758 231.705490,94.261894 
	C229.667938,94.261894 228.024872,94.261894 225.433395,94.261719 
M326.721619,48.777603 
	C327.210114,50.147160 327.698608,51.516712 328.105286,52.656822 
	C330.324707,52.656822 332.176819,52.656822 334.443146,52.656822 
	C331.917053,45.686634 329.694061,39.117004 327.072418,32.710529 
	C326.585602,31.520943 324.498871,30.333961 323.140503,30.322386 
	C321.533447,30.308689 318.949402,31.170910 318.462402,32.346630 
	C315.715607,38.978149 313.471375,45.817814 310.952332,52.876675 
	C313.289642,52.876675 315.086273,52.876675 316.991852,52.876675 
	C317.832062,50.900352 318.645996,48.985828 319.419647,47.166142 
	C321.581787,47.166142 323.398438,47.116737 325.208374,47.205502 
	C325.596466,47.224537 325.960083,47.743721 326.721619,48.777603 
M272.325378,48.259186 
	C265.965912,48.248207 265.965912,48.248207 266.870117,43.719429 
	C270.016022,43.719429 273.255096,43.719429 276.358612,43.719429 
	C277.787354,37.786011 273.705353,39.449230 271.078491,39.156265 
	C268.724457,38.893723 264.781342,40.418919 266.658112,34.864944 
	C270.037476,34.864944 273.460510,34.864944 277.272827,34.864944 
	C277.068878,33.033112 276.917542,31.673630 276.774414,30.387897 
	C271.063110,30.387897 265.813873,30.387897 260.338654,30.387897 
	C260.338654,37.993382 260.338654,45.343884 260.338654,52.751549 
	C266.198944,52.751549 271.760712,52.751549 277.258453,52.751549 
	C278.680817,48.420486 276.311981,47.992599 272.325378,48.259186 
M247.423950,53.024559 
	C249.887222,53.024559 252.350510,53.024559 255.200760,53.024559 
	C255.122498,51.266762 255.060776,49.879974 254.989105,48.270012 
	C252.265823,48.270012 249.944977,48.158958 247.638947,48.296448 
	C244.308945,48.494984 242.953278,47.465000 244.636429,43.794914 
	C247.775085,43.794914 250.872345,43.794914 254.346786,43.794914 
	C254.176117,42.028641 254.043106,40.652176 253.876648,38.929596 
	C250.356674,38.929596 247.256683,38.929596 244.201569,38.929596 
	C244.201569,37.457771 244.201569,36.379608 244.201569,34.870399 
	C247.877289,34.870399 251.308594,34.870399 255.104996,34.870399 
	C254.914978,33.033154 254.773865,31.668779 254.642044,30.394281 
	C248.924362,30.394281 243.657837,30.394281 238.228439,30.394281 
	C238.228439,38.016312 238.228439,45.385185 238.228439,53.024563 
	C241.180740,53.024563 243.820862,53.024563 247.423950,53.024559 
M354.344788,90.327225 
	C351.385071,88.455620 348.394501,86.630127 345.483856,84.685120 
	C344.576599,84.078880 343.721344,83.243500 343.188599,82.314438 
	C343.014435,82.010674 343.909454,80.561531 344.362518,80.537895 
	C345.400055,80.483795 346.502441,80.892311 347.513763,81.281258 
	C349.508698,82.048508 351.459717,82.929970 354.247345,84.110931 
	C352.509583,77.315269 350.082550,75.522850 344.614044,75.953262 
	C340.888641,76.246483 337.638916,77.474693 336.962311,81.707329 
	C336.119232,86.981613 339.926453,88.544754 343.894409,89.849564 
	C344.367340,90.005089 344.949127,89.967323 345.331787,90.233170 
	C346.374115,90.957367 347.458069,91.696671 348.247589,92.658165 
	C348.450592,92.905426 347.642822,94.583977 347.271973,94.594040 
	C345.881012,94.631813 344.423676,94.420685 343.092926,93.989151 
	C340.875427,93.270042 338.736298,92.309311 335.813507,91.153465 
	C337.576111,97.909775 341.110901,99.994850 347.479706,99.211479 
	C352.696533,98.569809 354.590851,96.397453 354.344788,90.327225 
M165.289017,38.867039 
	C168.102417,40.667286 170.936157,42.436852 173.718842,44.283405 
	C174.781219,44.988384 175.819199,45.789291 176.645081,46.740326 
	C176.805145,46.924644 175.952560,48.558376 175.527176,48.576313 
	C174.140976,48.634747 172.678207,48.433598 171.351715,48.003178 
	C169.109116,47.275501 166.948196,46.296032 163.974472,45.112644 
	C166.070435,52.698994 172.700531,55.514252 178.901840,52.231720 
	C180.667892,51.296906 182.677765,48.912338 182.725601,47.142555 
	C182.780991,45.093887 181.197815,42.560539 179.574905,41.038494 
	C178.132339,39.685593 175.516998,39.671600 173.705750,38.587872 
	C172.731430,38.004917 172.359070,36.415916 171.715103,35.280853 
	C173.008453,35.251057 174.394791,34.909122 175.574539,35.260609 
	C177.625717,35.871735 179.549332,36.911068 182.292099,38.103848 
	C180.894104,31.379656 178.437653,29.574621 172.893738,29.929976 
	C167.568588,30.271313 165.374969,32.574615 165.289017,38.867039 
M282.728699,76.754189 
	C277.134277,76.544540 271.534821,76.421730 265.947205,76.095299 
	C262.101257,75.870621 261.311829,77.431572 262.687958,80.784492 
	C264.933777,80.939362 267.039093,81.084534 269.585693,81.260139 
	C269.585693,87.234337 269.585693,92.973869 269.585693,98.741333 
	C271.794067,98.741333 273.536011,98.741333 275.789703,98.741333 
	C275.789703,92.732254 275.789703,87.006020 275.789703,81.891830 
	C278.238403,79.560287 283.433014,83.729485 282.728699,76.754189 
M166.287354,83.691681 
	C170.723114,66.018112 163.096527,44.973846 150.638336,41.386265 
	C166.368530,57.777191 168.631927,75.900238 158.871490,96.041733 
	C162.735519,93.087425 164.514053,88.852295 166.287354,83.691681 
M295.070618,121.988037 
	C295.272461,120.174126 296.097809,117.017387 295.570953,116.772766 
	C292.927094,115.545166 289.929596,115.079208 286.000305,114.076057 
	C287.085327,119.533401 284.755035,124.105629 288.505127,129.372665 
	C288.953918,126.385284 289.187561,124.830040 289.400665,123.411484 
	C291.242432,123.049591 292.834229,122.736824 295.070618,121.988037 
M269.016693,123.659981 
	C266.760071,121.799759 264.503418,119.939545 261.339447,117.331383 
	C263.398834,117.331383 264.461670,117.106918 265.363953,117.391548 
	C266.359924,117.705727 267.208649,118.486778 268.121490,119.064476 
	C268.449402,118.390366 268.777283,117.716255 269.105194,117.042137 
	C267.136932,116.271294 265.162811,114.915802 263.202484,114.935448 
	C261.898621,114.948509 260.614471,116.925461 259.321472,118.023369 
	C260.784454,119.536194 262.213257,121.084297 263.724274,122.547516 
	C264.525085,123.322990 265.468719,123.951012 266.347870,124.645592 
	C266.106781,125.110435 265.865662,125.575272 265.624542,126.040115 
	C263.481384,125.424576 261.338226,124.809036 259.195068,124.193489 
	C258.980652,124.696922 258.766266,125.200348 258.551849,125.703781 
	C260.413330,126.544518 262.380737,128.215775 264.106903,127.995598 
	C265.881348,127.769257 267.420288,125.696640 269.016693,123.659981 
M216.335129,128.061691 
	C217.812378,127.931145 219.289612,127.800606 220.766861,127.670059 
	C220.746521,127.190651 220.726181,126.711250 220.705841,126.231850 
	C219.210358,126.115707 217.689606,126.125519 216.229523,125.832794 
	C215.443649,125.675240 214.761780,124.998978 214.032974,124.556770 
	C214.739838,123.914398 215.347046,122.990250 216.177246,122.696632 
	C217.379333,122.271477 218.742783,122.302505 220.037399,122.138931 
	C219.382126,120.749817 218.706696,120.490273 218.030853,120.231789 
	C216.692474,119.719879 215.353851,119.208565 214.015335,118.697014 
	C215.453812,118.141060 216.897919,117.599075 218.328461,117.023399 
	C219.075989,116.722588 219.799713,116.362564 220.534180,116.029274 
	C220.467545,115.762642 220.400894,115.496010 220.334244,115.229378 
	C217.355240,115.229378 214.376251,115.229378 211.301361,115.229378 
	C211.301361,119.556618 211.301361,123.606445 211.301361,127.881096 
	C212.843216,127.948685 214.131897,128.005188 216.335129,128.061691 
M326.675140,120.359718 
	C324.948364,119.742554 321.540436,121.520767 321.846436,117.375084 
	C324.255768,117.040421 326.180481,116.773071 328.105164,116.505722 
	C328.058136,116.118362 328.011108,115.731003 327.964081,115.343643 
	C325.048279,115.343643 322.132477,115.343643 319.201324,115.343643 
	C319.201324,119.604988 319.201324,123.671890 319.201324,127.518898 
	C322.425232,127.518898 325.354218,127.518898 328.283203,127.518898 
	C327.534424,126.362480 326.695892,126.177528 325.885590,125.907845 
	C324.507843,125.449303 323.147888,124.937424 321.780457,124.447975 
	C323.031738,123.817070 324.333252,123.266289 325.515717,122.525536 
	C326.237488,122.073395 326.776184,121.329018 326.675140,120.359718 
M230.026779,115.904465 
	C227.533997,115.399345 227.382675,115.394066 227.313858,117.367577 
	C227.193695,120.812874 227.280365,124.265381 227.280365,128.178391 
	C230.912384,127.986298 233.928772,127.826759 236.945145,127.667229 
	C236.937012,127.186386 236.928864,126.705544 236.920731,126.224701 
	C234.738907,125.966133 232.557083,125.707565 230.083084,125.414375 
	C230.083084,122.448524 230.083084,119.636223 230.026779,115.904465 
M311.144928,114.885605 
	C307.913757,114.885605 304.682556,114.885605 301.451385,114.885605 
	C301.445435,115.406952 301.439484,115.928299 301.433533,116.449646 
	C302.886902,116.823723 304.340240,117.197792 305.684906,117.543900 
	C305.871368,121.258629 306.042114,124.660614 306.212860,128.062607 
	C306.882202,128.090881 307.551575,128.119171 308.220917,128.147446 
	C308.450592,124.596626 308.680237,121.045815 308.802612,119.153809 
	C310.486542,116.981728 311.269653,115.971626 311.144928,114.885605 
M243.945709,116.977226 
	C244.851486,118.116356 246.285233,119.145508 246.550323,120.418106 
	C247.062134,122.875038 246.914337,125.469383 247.039978,128.006760 
	C247.639923,128.006775 248.239853,128.006790 248.839798,128.006805 
	C249.043396,124.417488 249.247009,120.828163 249.438629,117.449806 
	C251.113144,117.003952 252.466644,116.643570 253.820129,116.283188 
	C253.737656,115.838654 253.655167,115.394119 253.572678,114.949585 
	C250.321442,114.949585 247.068268,114.901909 243.822296,115.033073 
	C243.538971,115.044518 243.303162,116.231743 243.945709,116.977226 
M203.395279,127.823692 
	C204.859909,120.082619 204.302048,116.183487 200.361679,114.703331 
	C201.142883,119.561661 201.821335,123.780945 203.395279,127.823692 
z"/>
<path fill="#114693" opacity="1.000000" stroke="none" 
	d="
M89.323341,92.578339 
	C80.305412,75.546280 83.010193,57.076923 96.105446,44.654213 
	C109.069679,32.355793 128.074890,30.691925 144.061661,40.455750 
	C164.903549,53.184811 167.316986,85.661446 148.589828,101.773148 
	C146.467117,103.599388 144.162827,105.214546 141.997513,106.885292 
	C142.665985,109.286171 143.790710,111.616180 143.875122,113.983292 
	C144.053238,118.978363 139.859375,123.024788 134.637833,123.124832 
	C127.476410,123.262039 120.307671,123.067299 113.149239,123.269104 
	C111.643585,123.311554 110.168999,124.456139 108.680099,125.092880 
	C108.876266,125.724991 109.072433,126.357101 109.268608,126.989212 
	C117.222038,126.989212 125.177040,126.890823 133.128464,127.017006 
	C141.007553,127.142044 145.759445,133.357498 143.057358,139.842453 
	C141.304245,144.049927 137.753220,145.633194 133.502472,145.812561 
	C129.843536,145.966949 126.162956,145.694885 122.513153,145.934464 
	C121.119026,146.025970 119.783867,147.015656 118.421837,147.596039 
	C119.859077,148.336441 121.242676,149.545990 122.744934,149.717758 
	C125.705223,150.056244 128.731781,149.852142 131.730072,149.810303 
	C134.428406,149.772690 137.003830,150.037216 136.897064,153.569580 
	C136.802307,156.704239 134.515030,157.092773 131.928177,157.034744 
	C127.931679,156.945084 123.930061,157.082596 119.933586,156.992386 
	C115.129326,156.883942 111.737053,153.866638 111.011848,149.235489 
	C110.264374,144.462021 112.762985,139.838715 117.548080,138.988297 
	C122.407166,138.124725 127.471794,138.467468 132.430847,138.081726 
	C133.681152,137.984467 134.871994,137.122726 136.090179,136.612305 
	C134.821701,135.927780 133.569992,134.690582 132.281921,134.651459 
	C125.623802,134.449341 118.954712,134.646164 112.292664,134.525482 
	C105.568604,134.403687 101.645966,130.920029 101.564232,125.278076 
	C101.484741,119.791359 105.695526,116.083366 112.291695,116.006119 
	C118.954971,115.928093 125.622864,116.094055 132.281754,115.906075 
	C133.765900,115.864182 135.220917,114.790504 136.689346,114.191864 
	C136.510941,113.452972 136.332520,112.714081 136.154099,111.975189 
	C132.459427,111.975189 128.762207,111.886597 125.070534,111.991913 
	C114.267258,112.300110 104.730988,108.969398 96.766129,101.721718 
	C93.978882,99.185448 91.910149,95.859589 89.323341,92.578339 
M139.974899,99.008057 
	C141.273956,97.988106 142.645157,97.047058 143.860626,95.935669 
	C153.172058,87.421562 156.358139,73.605751 151.804764,61.676552 
	C147.378357,50.079979 136.310440,42.260857 123.851768,41.928661 
	C110.616959,41.575771 99.922714,48.109901 94.259911,60.165592 
	C88.715256,74.283363 92.103073,88.427505 103.188904,97.444138 
	C113.374321,105.728424 128.402084,106.435852 139.974899,99.008057 
z"/>
<path fill="#104694" opacity="1.000000" stroke="none" 
	d="
M113.434242,25.494398 
	C115.550797,25.045652 117.652420,24.502438 119.786621,24.165392 
	C126.977432,23.029774 127.482719,23.406483 129.572830,31.260551 
	C111.289124,29.121220 96.930069,35.701614 86.425827,51.045643 
	C83.842445,45.767864 83.099518,39.047462 74.966942,40.286461 
	C75.472801,46.795170 76.024063,53.887966 76.565765,60.857819 
	C74.657288,60.857819 73.012726,60.857819 70.851585,60.857819 
	C71.327667,54.368160 71.832939,47.480595 72.356468,40.344177 
	C69.623886,40.075439 67.380280,39.854790 63.944988,39.516941 
	C66.006195,37.336510 67.382011,35.836121 68.805679,34.382607 
	C76.266907,26.764957 83.687881,19.106358 91.259422,11.599756 
	C92.566254,10.304140 94.516533,8.885369 96.192436,8.856655 
	C109.319496,8.631732 122.452133,8.732049 135.840775,8.732049 
	C131.453232,13.393663 129.644516,21.299223 120.473900,21.391870 
	C117.966362,21.417206 115.475128,23.057283 112.343460,24.288540 
	C111.172401,24.982141 110.634315,25.343538 110.096222,25.704937 
	C110.195473,25.918518 110.294716,26.132099 110.393967,26.345680 
	C111.407394,26.061920 112.420815,25.778160 113.434242,25.494398 
z"/>
<path fill="#134895" opacity="1.000000" stroke="none" 
	d="
M346.642700,48.472843 
	C345.901825,45.910385 345.293396,43.733952 344.684967,41.557518 
	C344.447601,41.597298 344.210266,41.637077 343.972900,41.676853 
	C343.972900,45.228676 343.972900,48.780495 343.972900,52.768391 
	C341.939331,52.864769 340.214661,52.946503 338.198059,53.042076 
	C338.198059,45.361229 338.198059,37.979984 338.198059,30.376324 
	C341.211365,30.376324 343.974243,30.376324 347.061462,30.376324 
	C348.198029,35.017899 349.329956,39.640476 350.461884,44.263054 
	C350.823517,44.329674 351.185181,44.396290 351.546814,44.462910 
	C352.090210,42.060711 352.632690,39.658298 353.177185,37.256348 
	C354.940277,29.479151 354.940582,29.479221 363.959778,30.655617 
	C363.959778,34.172798 363.959808,37.784695 363.959808,41.396587 
	C363.959808,45.039516 363.959778,48.682449 363.959778,52.765659 
	C362.020569,52.864048 360.293610,52.951664 358.194763,53.058147 
	C358.194763,48.870487 358.194763,44.932568 358.194763,40.994644 
	C357.901093,40.938862 357.607422,40.883076 357.313751,40.827293 
	C356.188629,44.772247 355.063477,48.717197 353.915527,52.742069 
	C350.510315,53.202042 347.015900,54.074780 346.642700,48.472843 
z"/>
<path fill="#134895" opacity="1.000000" stroke="none" 
	d="
M202.959671,93.101860 
	C202.959656,90.715218 202.959656,88.781418 202.959656,86.847618 
	C202.745728,86.809219 202.531815,86.770813 202.317886,86.732414 
	C201.163239,90.777077 200.008575,94.821739 198.851089,98.876320 
	C196.755081,98.876320 194.951828,98.876320 192.894272,98.876320 
	C191.812378,95.068710 190.746826,91.318626 189.681274,87.568542 
	C189.447754,87.604187 189.214233,87.639839 188.980713,87.675491 
	C188.980713,91.223320 188.980713,94.771149 188.980713,98.763947 
	C186.956146,98.863052 185.232208,98.947433 183.204315,99.046700 
	C183.204315,91.379890 183.204315,84.001030 183.204315,76.387718 
	C186.187134,76.387718 188.951233,76.387718 192.065277,76.387718 
	C193.190445,80.991493 194.321869,85.620834 195.453293,90.250168 
	C195.816925,90.324059 196.180557,90.397942 196.544174,90.471832 
	C197.084854,88.082863 197.625748,85.693939 198.166199,83.304916 
	C199.921143,75.547020 199.921082,75.547005 208.656311,76.574883 
	C208.656311,83.775093 208.656311,91.019699 208.656311,98.775215 
	C207.064438,98.862747 205.336349,98.957771 202.959686,99.088463 
	C202.959686,97.085411 202.959686,95.320053 202.959671,93.101860 
z"/>
<path fill="#164A96" opacity="1.000000" stroke="none" 
	d="
M252.471893,88.553940 
	C252.471893,84.597595 252.471893,80.641251 252.471893,76.419930 
	C254.824554,76.419930 256.544373,76.419930 258.513458,76.419930 
	C258.513458,83.909050 258.513458,91.149475 258.513458,98.493454 
	C253.502945,100.127922 249.957825,99.097931 247.934418,93.849998 
	C246.906601,91.184242 245.159973,88.795631 242.892471,86.508705 
	C242.892471,90.540634 242.892471,94.572563 242.892471,98.799759 
	C240.831543,98.799759 239.218445,98.799759 237.257309,98.799759 
	C237.257309,91.527786 237.257309,84.151405 237.257309,76.639870 
	C241.814987,75.140762 245.082214,76.113846 246.985672,80.968315 
	C248.065460,83.722183 249.807358,86.216431 251.628860,89.235031 
	C252.212326,89.669441 252.417984,89.696404 252.623627,89.723366 
	C252.573044,89.333557 252.522461,88.943748 252.471893,88.553940 
z"/>
<path fill="#194C98" opacity="1.000000" stroke="none" 
	d="
M208.325073,32.622749 
	C208.330200,39.546062 208.330200,46.029747 208.330200,52.768269 
	C206.290634,52.768269 204.544815,52.768269 202.512100,52.768269 
	C202.370316,50.040073 202.234070,47.418629 202.080811,44.469879 
	C199.254318,44.469879 196.520370,44.469879 193.401001,44.469879 
	C193.401001,47.218136 193.401001,49.840984 193.401001,52.744106 
	C191.278793,52.744106 189.534576,52.744106 187.526489,52.744106 
	C187.526489,45.420700 187.526489,38.154453 187.526489,30.382174 
	C189.319992,30.301994 191.042908,30.224970 193.046219,30.135408 
	C193.210617,33.270775 193.356232,36.047745 193.519745,39.166321 
	C196.307678,39.166321 198.900696,39.166321 201.935944,39.166321 
	C202.142853,36.392830 202.358978,33.496059 202.684799,29.128740 
	C205.010910,30.389549 206.665436,31.286333 208.325073,32.622749 
z"/>
<path fill="#174B97" opacity="1.000000" stroke="none" 
	d="
M294.209656,30.143780 
	C296.662445,30.160748 298.837189,29.678410 300.613373,30.312513 
	C303.230804,31.246929 306.680603,32.436867 307.691254,34.526295 
	C308.622650,36.451885 306.804047,39.707664 305.946320,43.478416 
	C306.595642,45.544586 307.700317,49.059788 308.875977,52.800804 
	C306.640717,52.800804 304.701965,52.800804 302.892883,52.800804 
	C300.702423,49.900616 302.896393,43.712112 295.878876,44.700905 
	C295.754944,47.322731 295.632446,49.914703 295.498077,52.757294 
	C293.515106,52.757294 291.764801,52.757294 289.659637,52.757294 
	C289.659637,46.014244 289.738281,39.373440 289.627014,32.735821 
	C289.569916,29.329378 291.940094,30.298725 294.209656,30.143780 
M301.898743,38.325947 
	C301.805939,33.435825 298.494476,35.337009 295.683716,35.137112 
	C295.779449,36.944878 295.853668,38.346188 295.961945,40.391121 
	C298.076202,39.876057 299.761749,39.465435 301.898743,38.325947 
z"/>
<path fill="#174B97" opacity="1.000000" stroke="none" 
	d="
M313.654022,95.570953 
	C313.653748,88.982132 313.653748,82.849220 313.653748,76.178383 
	C317.468903,76.178383 321.000549,75.682175 324.305573,76.334366 
	C326.981201,76.862358 330.619934,78.196335 331.566742,80.228149 
	C332.548920,82.335785 330.807098,85.712776 330.037598,89.657295 
	C330.629791,91.552223 331.691345,94.949005 332.865448,98.705963 
	C330.761932,98.705963 328.885101,98.705963 326.862396,98.705963 
	C324.504028,96.359756 327.111938,89.535439 319.949768,90.758278 
	C319.763794,93.471230 319.585693,96.068748 319.383453,99.018867 
	C317.083252,98.299271 313.478607,101.143448 313.654022,95.570953 
M320.458984,85.898918 
	C322.310455,85.086845 324.161957,84.274773 326.013428,83.462700 
	C324.253204,82.382751 322.492981,81.302811 319.813477,79.658875 
	C319.813477,82.706085 319.813477,83.989403 320.458984,85.898918 
z"/>
<path fill="#134895" opacity="1.000000" stroke="none" 
	d="
M228.365112,52.989830 
	C227.302628,51.534904 226.362289,50.154961 226.099899,48.656311 
	C225.537521,45.444550 224.041656,43.895180 220.255356,44.714394 
	C220.255356,47.231899 220.255356,49.797073 220.255356,52.688103 
	C218.108948,52.688103 216.381912,52.688103 214.354980,52.688103 
	C214.354980,45.390736 214.354980,38.028347 214.354980,30.176577 
	C217.834015,30.176577 221.221085,29.662983 224.357697,30.328957 
	C227.184006,30.929050 230.858643,32.187672 232.070755,34.334801 
	C233.132675,36.215847 231.293365,39.734703 230.520142,43.610058 
	C231.112396,45.548988 232.145752,48.932060 233.316055,52.763416 
	C231.603745,52.857178 230.199142,52.934090 228.365112,52.989830 
M226.073578,36.023674 
	C224.194641,35.580120 222.315720,35.136566 220.274918,34.654800 
	C220.274918,36.939144 220.274918,38.339836 220.274918,40.024506 
	C222.958099,39.616726 226.402512,41.470757 226.073578,36.023674 
z"/>
<path fill="#144996" opacity="1.000000" stroke="none" 
	d="
M301.578156,98.793884 
	C291.166382,100.333702 285.520203,96.237289 285.554718,87.550987 
	C285.577515,81.814568 288.534027,77.589905 293.470978,76.239113 
	C299.135986,74.689125 304.839417,76.805244 307.299377,81.369820 
	C309.979462,86.342827 309.135437,92.996635 305.262207,96.535744 
	C304.303619,97.411659 303.053528,97.968552 301.578156,98.793884 
M298.876770,80.588837 
	C295.261780,79.502899 292.905823,81.180725 292.164948,84.471321 
	C291.372589,87.990677 290.876160,91.996078 294.697388,94.259941 
	C297.810730,96.104393 300.637329,94.946236 301.879608,91.588165 
	C303.322601,87.687584 303.385773,83.796089 298.876770,80.588837 
z"/>
<path fill="#1A4D98" opacity="1.000000" stroke="none" 
	d="
M225.907608,94.261810 
	C228.024872,94.261894 229.667938,94.261894 231.705490,94.261894 
	C231.823837,95.884758 231.922684,97.240189 232.038330,98.826126 
	C226.230148,98.826126 220.784393,98.826126 214.990356,98.826126 
	C214.990356,91.433075 214.990356,84.061424 214.990356,76.143845 
	C219.824768,76.143845 224.606232,75.930611 229.342331,76.299637 
	C230.471085,76.387589 231.448257,78.420746 232.495148,79.559204 
	C232.200729,79.970207 231.906296,80.381218 231.611877,80.792221 
	C228.194580,80.792221 224.777298,80.792221 221.437302,80.792221 
	C220.813293,84.856964 220.813293,84.856964 230.509460,85.351257 
	C230.676071,85.988510 230.950104,86.716133 231.036636,87.465416 
	C231.110565,88.105659 230.969269,88.770760 230.897430,89.790619 
	C227.747330,89.790619 224.644119,89.790619 221.473999,89.790619 
	C219.354050,94.836884 222.735962,94.224327 225.907608,94.261810 
z"/>
<path fill="#144996" opacity="1.000000" stroke="none" 
	d="
M326.528320,48.405052 
	C325.960083,47.743721 325.596466,47.224537 325.208374,47.205502 
	C323.398438,47.116737 321.581787,47.166142 319.419647,47.166142 
	C318.645996,48.985828 317.832062,50.900352 316.991852,52.876675 
	C315.086273,52.876675 313.289642,52.876675 310.952332,52.876675 
	C313.471375,45.817814 315.715607,38.978149 318.462402,32.346630 
	C318.949402,31.170910 321.533447,30.308689 323.140503,30.322386 
	C324.498871,30.333961 326.585602,31.520943 327.072418,32.710529 
	C329.694061,39.117004 331.917053,45.686634 334.443146,52.656822 
	C332.176819,52.656822 330.324707,52.656822 328.105286,52.656822 
	C327.698608,51.516712 327.210114,50.147160 326.528320,48.405052 
z"/>
<path fill="#1B4E98" opacity="1.000000" stroke="none" 
	d="
M272.776611,48.259254 
	C276.311981,47.992599 278.680817,48.420486 277.258453,52.751549 
	C271.760712,52.751549 266.198944,52.751549 260.338654,52.751549 
	C260.338654,45.343884 260.338654,37.993382 260.338654,30.387897 
	C265.813873,30.387897 271.063110,30.387897 276.774414,30.387897 
	C276.917542,31.673630 277.068878,33.033112 277.272827,34.864944 
	C273.460510,34.864944 270.037476,34.864944 266.658112,34.864944 
	C264.781342,40.418919 268.724457,38.893723 271.078491,39.156265 
	C273.705353,39.449230 277.787354,37.786011 276.358612,43.719429 
	C273.255096,43.719429 270.016022,43.719429 266.870117,43.719429 
	C265.965912,48.248207 265.965912,48.248207 272.776611,48.259254 
z"/>
<path fill="#174B97" opacity="1.000000" stroke="none" 
	d="
M246.942474,53.024559 
	C243.820862,53.024563 241.180740,53.024563 238.228439,53.024563 
	C238.228439,45.385185 238.228439,38.016312 238.228439,30.394281 
	C243.657837,30.394281 248.924362,30.394281 254.642044,30.394281 
	C254.773865,31.668779 254.914978,33.033154 255.104996,34.870399 
	C251.308594,34.870399 247.877289,34.870399 244.201569,34.870399 
	C244.201569,36.379608 244.201569,37.457771 244.201569,38.929596 
	C247.256683,38.929596 250.356674,38.929596 253.876648,38.929596 
	C254.043106,40.652176 254.176117,42.028641 254.346786,43.794914 
	C250.872345,43.794914 247.775085,43.794914 244.636429,43.794914 
	C242.953278,47.465000 244.308945,48.494984 247.638947,48.296448 
	C249.944977,48.158958 252.265823,48.270012 254.989105,48.270012 
	C255.060776,49.879974 255.122498,51.266762 255.200760,53.024559 
	C252.350510,53.024559 249.887222,53.024559 246.942474,53.024559 
z"/>
<path fill="#124795" opacity="1.000000" stroke="none" 
	d="
M354.475098,90.683563 
	C354.590851,96.397453 352.696533,98.569809 347.479706,99.211479 
	C341.110901,99.994850 337.576111,97.909775 335.813507,91.153465 
	C338.736298,92.309311 340.875427,93.270042 343.092926,93.989151 
	C344.423676,94.420685 345.881012,94.631813 347.271973,94.594040 
	C347.642822,94.583977 348.450592,92.905426 348.247589,92.658165 
	C347.458069,91.696671 346.374115,90.957367 345.331787,90.233170 
	C344.949127,89.967323 344.367340,90.005089 343.894409,89.849564 
	C339.926453,88.544754 336.119232,86.981613 336.962311,81.707329 
	C337.638916,77.474693 340.888641,76.246483 344.614044,75.953262 
	C350.082550,75.522850 352.509583,77.315269 354.247345,84.110931 
	C351.459717,82.929970 349.508698,82.048508 347.513763,81.281258 
	C346.502441,80.892311 345.400055,80.483795 344.362518,80.537895 
	C343.909454,80.561531 343.014435,82.010674 343.188599,82.314438 
	C343.721344,83.243500 344.576599,84.078880 345.483856,84.685120 
	C348.394501,86.630127 351.385071,88.455620 354.475098,90.683563 
z"/>
<path fill="#144996" opacity="1.000000" stroke="none" 
	d="
M165.196289,38.488335 
	C165.374969,32.574615 167.568588,30.271313 172.893738,29.929976 
	C178.437653,29.574621 180.894104,31.379656 182.292099,38.103848 
	C179.549332,36.911068 177.625717,35.871735 175.574539,35.260609 
	C174.394791,34.909122 173.008453,35.251057 171.715103,35.280853 
	C172.359070,36.415916 172.731430,38.004917 173.705750,38.587872 
	C175.516998,39.671600 178.132339,39.685593 179.574905,41.038494 
	C181.197815,42.560539 182.780991,45.093887 182.725601,47.142555 
	C182.677765,48.912338 180.667892,51.296906 178.901840,52.231720 
	C172.700531,55.514252 166.070435,52.698994 163.974472,45.112644 
	C166.948196,46.296032 169.109116,47.275501 171.351715,48.003178 
	C172.678207,48.433598 174.140976,48.634747 175.527176,48.576313 
	C175.952560,48.558376 176.805145,46.924644 176.645081,46.740326 
	C175.819199,45.789291 174.781219,44.988384 173.718842,44.283405 
	C170.936157,42.436852 168.102417,40.667286 165.196289,38.488335 
z"/>
<path fill="#1E509A" opacity="1.000000" stroke="none" 
	d="
M282.842651,77.190834 
	C283.433014,83.729485 278.238403,79.560287 275.789703,81.891830 
	C275.789703,87.006020 275.789703,92.732254 275.789703,98.741333 
	C273.536011,98.741333 271.794067,98.741333 269.585693,98.741333 
	C269.585693,92.973869 269.585693,87.234337 269.585693,81.260139 
	C267.039093,81.084534 264.933777,80.939362 262.687958,80.784492 
	C261.311829,77.431572 262.101257,75.870621 265.947205,76.095299 
	C271.534821,76.421730 277.134277,76.544540 282.842651,77.190834 
z"/>
<path fill="#FAB13B" opacity="1.000000" stroke="none" 
	d="
M166.178070,84.080124 
	C164.514053,88.852295 162.735519,93.087425 158.871490,96.041733 
	C168.631927,75.900238 166.368530,57.777191 150.638336,41.386265 
	C163.096527,44.973846 170.723114,66.018112 166.178070,84.080124 
z"/>
<path fill="#1E509A" opacity="1.000000" stroke="none" 
	d="
M294.748322,122.206039 
	C292.834229,122.736824 291.242432,123.049591 289.400665,123.411484 
	C289.187561,124.830040 288.953918,126.385284 288.505127,129.372665 
	C284.755035,124.105629 287.085327,119.533401 286.000305,114.076057 
	C289.929596,115.079208 292.927094,115.545166 295.570953,116.772766 
	C296.097809,117.017387 295.272461,120.174126 294.748322,122.206039 
z"/>
<path fill="#25569D" opacity="1.000000" stroke="none" 
	d="
M269.039490,124.045975 
	C267.420288,125.696640 265.881348,127.769257 264.106903,127.995598 
	C262.380737,128.215775 260.413330,126.544518 258.551849,125.703781 
	C258.766266,125.200348 258.980652,124.696922 259.195068,124.193489 
	C261.338226,124.809036 263.481384,125.424576 265.624542,126.040115 
	C265.865662,125.575272 266.106781,125.110435 266.347870,124.645592 
	C265.468719,123.951012 264.525085,123.322990 263.724274,122.547516 
	C262.213257,121.084297 260.784454,119.536194 259.321472,118.023376 
	C260.614471,116.925461 261.898621,114.948509 263.202484,114.935448 
	C265.162811,114.915802 267.136932,116.271294 269.105194,117.042137 
	C268.777283,117.716255 268.449402,118.390366 268.121490,119.064476 
	C267.208649,118.486778 266.359924,117.705727 265.363953,117.391548 
	C264.461670,117.106918 263.398834,117.331383 261.339447,117.331383 
	C264.503418,119.939545 266.760071,121.799759 269.039490,124.045975 
z"/>
<path fill="#29599F" opacity="1.000000" stroke="none" 
	d="
M215.877853,128.061676 
	C214.131897,128.005188 212.843216,127.948685 211.301361,127.881096 
	C211.301361,123.606445 211.301361,119.556618 211.301361,115.229378 
	C214.376251,115.229378 217.355240,115.229378 220.334244,115.229378 
	C220.400894,115.496010 220.467545,115.762642 220.534180,116.029274 
	C219.799713,116.362564 219.075989,116.722588 218.328461,117.023399 
	C216.897919,117.599075 215.453812,118.141060 214.015335,118.697006 
	C215.353851,119.208565 216.692474,119.719879 218.030853,120.231789 
	C218.706696,120.490273 219.382126,120.749817 220.037399,122.138931 
	C218.742783,122.302505 217.379333,122.271477 216.177246,122.696632 
	C215.347046,122.990250 214.739838,123.914398 214.032974,124.556763 
	C214.761780,124.998978 215.443649,125.675240 216.229523,125.832794 
	C217.689606,126.125519 219.210358,126.115707 220.705841,126.231850 
	C220.726181,126.711250 220.746521,127.190651 220.766861,127.670059 
	C219.289612,127.800606 217.812378,127.931145 215.877853,128.061676 
z"/>
<path fill="#1E509A" opacity="1.000000" stroke="none" 
	d="
M327.036133,120.537811 
	C326.776184,121.329018 326.237488,122.073395 325.515717,122.525536 
	C324.333252,123.266289 323.031738,123.817070 321.780457,124.447968 
	C323.147888,124.937424 324.507843,125.449303 325.885590,125.907845 
	C326.695892,126.177528 327.534424,126.362480 328.283203,127.518898 
	C325.354218,127.518898 322.425232,127.518898 319.201324,127.518898 
	C319.201324,123.671890 319.201324,119.604988 319.201324,115.343643 
	C322.132477,115.343643 325.048279,115.343643 327.964081,115.343643 
	C328.011108,115.731003 328.058136,116.118362 328.105164,116.505722 
	C326.180481,116.773071 324.255768,117.040421 321.846436,117.375084 
	C321.540436,121.520767 324.948364,119.742554 327.036133,120.537811 
z"/>
<path fill="#25569D" opacity="1.000000" stroke="none" 
	d="
M230.054932,116.364197 
	C230.083084,119.636223 230.083084,122.448524 230.083084,125.414375 
	C232.557083,125.707565 234.738907,125.966133 236.920731,126.224701 
	C236.928864,126.705544 236.937012,127.186386 236.945145,127.667229 
	C233.928772,127.826759 230.912384,127.986298 227.280365,128.178391 
	C227.280365,124.265381 227.193695,120.812874 227.313858,117.367577 
	C227.382675,115.394066 227.533997,115.399345 230.054932,116.364197 
z"/>
<path fill="#28589E" opacity="1.000000" stroke="none" 
	d="
M311.598816,114.923569 
	C311.269653,115.971626 310.486542,116.981728 308.802612,119.153809 
	C308.680237,121.045815 308.450592,124.596626 308.220917,128.147446 
	C307.551575,128.119171 306.882202,128.090881 306.212860,128.062607 
	C306.042114,124.660614 305.871368,121.258629 305.684906,117.543900 
	C304.340240,117.197792 302.886902,116.823723 301.433533,116.449646 
	C301.439484,115.928299 301.445435,115.406952 301.451385,114.885605 
	C304.682556,114.885605 307.913757,114.885605 311.598816,114.923569 
z"/>
<path fill="#124795" opacity="1.000000" stroke="none" 
	d="
M243.495483,116.925026 
	C243.303162,116.231743 243.538971,115.044518 243.822296,115.033073 
	C247.068268,114.901909 250.321442,114.949585 253.572678,114.949585 
	C253.655167,115.394119 253.737656,115.838654 253.820129,116.283188 
	C252.466644,116.643570 251.113144,117.003952 249.438629,117.449806 
	C249.247009,120.828163 249.043396,124.417488 248.839798,128.006805 
	C248.239853,128.006790 247.639923,128.006775 247.039978,128.006760 
	C246.914337,125.469383 247.062134,122.875038 246.550323,120.418106 
	C246.285233,119.145508 244.851486,118.116356 243.495483,116.925026 
z"/>
<path fill="#28589E" opacity="1.000000" stroke="none" 
	d="
M202.947540,127.911957 
	C201.821335,123.780945 201.142883,119.561661 200.361679,114.703331 
	C204.302048,116.183487 204.859909,120.082619 202.947540,127.911957 
z"/>
<path fill="#F7A726" opacity="1.000000" stroke="none" 
	d="
M94.826103,59.663200 
	C99.922714,48.109901 110.616959,41.575771 123.851768,41.928661 
	C136.310440,42.260857 147.378357,50.079979 151.804764,61.676552 
	C156.358139,73.605751 153.172058,87.421562 143.860626,95.935669 
	C142.645157,97.047058 141.273956,97.988106 139.250763,99.002663 
	C135.964798,98.261513 133.402969,97.525757 131.089966,96.552414 
	C134.207077,94.384216 137.262604,92.667839 139.845291,90.410477 
	C140.790054,89.584709 140.612671,87.475090 140.947205,85.951157 
	C139.426254,86.291275 137.496704,86.156288 136.454300,87.052811 
	C131.650772,91.184105 126.399864,93.367447 119.811493,91.797287 
	C119.015007,91.558121 118.414749,91.582069 117.741943,91.645844 
	C117.669403,91.685669 117.505844,91.710991 117.558212,91.350700 
	C116.169044,89.706604 114.795616,88.335175 113.274826,87.153358 
	C104.091331,80.016830 97.982185,70.835510 94.826103,59.663200 
z"/>
<path fill="#D98B13" opacity="1.000000" stroke="none" 
	d="
M94.543007,59.914398 
	C97.982185,70.835510 104.091331,80.016830 113.274826,87.153358 
	C114.795616,88.335175 116.169044,89.706604 117.195587,91.305099 
	C114.119011,89.991119 111.526581,88.229301 108.764336,86.794365 
	C107.529556,86.152908 105.953857,86.167725 104.532875,85.884705 
	C104.826775,87.455147 104.575523,89.637527 105.519394,90.478378 
	C108.089989,92.768417 111.165756,94.491409 114.138870,96.830338 
	C119.070450,101.471199 126.902473,101.272789 130.919342,96.827820 
	C130.890060,96.857452 130.841156,96.790001 130.841156,96.790001 
	C133.402969,97.525757 135.964798,98.261513 138.925186,99.071236 
	C128.402084,106.435852 113.374321,105.728424 103.188904,97.444138 
	C92.103073,88.427505 88.715256,74.283363 94.543007,59.914398 
z"/>
<path fill="#FEFEFE" opacity="1.000000" stroke="none" 
	d="
M113.169624,25.202271 
	C112.420815,25.778160 111.407394,26.061920 110.393967,26.345680 
	C110.294716,26.132099 110.195473,25.918518 110.096222,25.704937 
	C110.634315,25.343538 111.172401,24.982141 112.032600,24.483217 
	C112.538147,24.533842 112.721581,24.721994 113.169624,25.202271 
z"/>
<path fill="#FEFEFE" opacity="1.000000" stroke="none" 
	d="
M252.321747,88.692703 
	C252.522461,88.943748 252.573044,89.333557 252.623627,89.723366 
	C252.417984,89.696404 252.212326,89.669441 251.945190,89.382141 
	C251.883713,89.121811 252.171616,88.831474 252.321747,88.692703 
z"/>
<path fill="#FBFCFD" opacity="1.000000" stroke="none" 
	d="
M301.673035,38.690380 
	C299.761749,39.465435 298.076202,39.876057 295.961945,40.391121 
	C295.853668,38.346188 295.779449,36.944878 295.683716,35.137112 
	C298.494476,35.337009 301.805939,33.435825 301.673035,38.690380 
z"/>
<path fill="#FBFCFD" opacity="1.000000" stroke="none" 
	d="
M320.136230,85.585815 
	C319.813477,83.989403 319.813477,82.706085 319.813477,79.658875 
	C322.492981,81.302811 324.253204,82.382751 326.013428,83.462700 
	C324.161957,84.274773 322.310455,85.086845 320.136230,85.585815 
z"/>
<path fill="#F4F6FA" opacity="1.000000" stroke="none" 
	d="
M226.274933,36.364098 
	C226.402512,41.470757 222.958099,39.616726 220.274918,40.024506 
	C220.274918,38.339836 220.274918,36.939144 220.274918,34.654800 
	C222.315720,35.136566 224.194641,35.580120 226.274933,36.364098 
z"/>
<path fill="#F4F6FA" opacity="1.000000" stroke="none" 
	d="
M299.231750,80.735001 
	C303.385773,83.796089 303.322601,87.687584 301.879608,91.588165 
	C300.637329,94.946236 297.810730,96.104393 294.697388,94.259941 
	C290.876160,91.996078 291.372589,87.990677 292.164948,84.471321 
	C292.905823,81.180725 295.261780,79.502899 299.231750,80.735001 
z"/>
<path fill="#17468A" opacity="1.000000" stroke="none" 
	d="
M114.041336,96.439102 
	C111.165756,94.491409 108.089989,92.768417 105.519394,90.478378 
	C104.575523,89.637527 104.826775,87.455147 104.532875,85.884705 
	C105.953857,86.167725 107.529556,86.152908 108.764336,86.794365 
	C111.526581,88.229301 114.119011,89.991119 117.143227,91.665390 
	C117.505844,91.710991 117.669403,91.685669 117.964348,91.830963 
	C118.842102,92.004311 119.424911,92.032364 120.007721,92.060410 
	C126.399864,93.367447 131.650772,91.184105 136.454300,87.052811 
	C137.496704,86.156288 139.426254,86.291275 140.947205,85.951157 
	C140.612671,87.475090 140.790054,89.584709 139.845291,90.410477 
	C137.262604,92.667839 134.207077,94.384216 131.089966,96.552414 
	C130.841156,96.790001 130.890060,96.857452 130.498260,96.838928 
	C124.751419,96.693314 119.396378,96.566208 114.041336,96.439102 
z"/>
<path fill="#D98B13" opacity="1.000000" stroke="none" 
	d="
M119.811493,91.797287 
	C119.424911,92.032364 118.842102,92.004311 118.036888,91.791138 
	C118.414749,91.582069 119.015007,91.558121 119.811493,91.797287 
z"/>
<path fill="#F7A726" opacity="1.000000" stroke="none" 
	d="
M114.138870,96.830338 
	C119.396378,96.566208 124.751419,96.693314 130.527557,96.809303 
	C126.902473,101.272789 119.070450,101.471199 114.138870,96.830338 
z"/>
</svg>